<?xml version="1.0" encoding="UTF-8" standalone="no"?>
<svg
   xmlns:svg="http://www.w3.org/2000/svg"
   xmlns="http://www.w3.org/2000/svg"
   xmlns:sodipodi="http://sodipodi.sourceforge.net/DTD/sodipodi-0.dtd"
   xmlns:inkscape="http://www.inkscape.org/namespaces/inkscape"
   width="63.814098mm"
   height="72.748596mm"
   viewBox="0 0 63.814098 72.748596"
   version="1.1"
   id="svg172"
   inkscape:version="1.0.1 (3bc2e813f5, 2020-09-07)"
   sodipodi:docname="drawing.svg">
  <defs
     id="defs166" />
  <sodipodi:namedview
     id="base"
     pagecolor="#ffffff"
     bordercolor="#666666"
     borderopacity="1.0"
     inkscape:pageopacity="0.0"
     inkscape:pageshadow="2"
     inkscape:zoom="1.979899"
     inkscape:cx="172.07111"
     inkscape:cy="106.6346"
     inkscape:document-units="mm"
     inkscape:current-layer="svg172"
     inkscape:document-rotation="0"
     showgrid="false"
     inkscape:window-width="960"
     inkscape:window-height="995"
     inkscape:window-x="26"
     inkscape:window-y="23"
     inkscape:window-maximized="0" />
  <path
     id="polygon1567"
     style="fill:#87de5d;stroke-width:0.01"
     d="m 62.490416,8.518589 c -1.047534,-0.6565919 0.09483,-2.3482191 -0.01623,-3.434677 0.230909,-1.5084077 0.461818,-3.0168153 0.692727,-4.525223 -2.019867,-0.2045 -4.039733,-0.409 -6.0596,-0.6135 -1.201667,1.0371 -2.403333,2.0742 -3.605,3.1113 1.616167,1.0855333 3.232333,2.1710667 4.8485,3.2566 0.429007,2.4685902 -1.467154,2.2741653 -3.090552,1.740538 -1.225985,-0.64313 -2.352403,0.519281 -2.8857,1.470348 0.772028,0.82187 1.357509,2.629085 2.429006,2.554984 1.184514,0.773545 2.369029,1.547089 3.553543,2.320634 0.833933,-1.980667 1.667867,-3.961333 2.5018,-5.942 0.543834,0.02033 1.087673,0.040673 1.631503,0.060996 z" />
  <path
     id="path1569"
     style="stroke-width:0.01"
     d="m 58.095819,6.426089 c -1.785937,-1.1047028 -3.446231,-2.5000623 -5.3047,-3.4321 -1.055731,0.71828 -1.950597,1.8998158 -3.105662,2.3352934 -1.474813,-0.1239311 -2.949625,-0.2478623 -4.424438,-0.3717934 -1.858731,1.6384162 1.153967,1.6935383 -0.04809,3.1910063 -0.588017,2.2018227 -1.59301,3.7270517 -3.94914,2.9320057 -0.955593,0.297981 -0.840153,2.17417 -1.361908,3.111428 -0.587539,0.959724 -0.424969,2.486972 0.837054,2.729223 1.404323,1.10657 1.254793,-1.161667 1.762274,-2.002945 -0.1783,-1.280409 2.293623,-1.779543 2.252365,-0.46707 -0.07592,1.598791 0.950229,1.803364 2.311363,1.584152 1.65814,-0.757956 0.57583,2.713954 2.011331,1.520227 0.449344,-1.137695 0.499197,-2.569791 0.795149,-3.820527 1.144729,0.03475 2.509537,0.743754 3.234341,-0.508032 1.602357,-0.729635 0.472994,-1.699323 -0.275557,-2.635547 -1.258011,-0.8764878 -0.435463,-1.9618049 0.592516,-2.5490119 0.869327,-0.958389 2.278627,0.085893 3.399419,0.060149 1.430668,0.620759 1.020136,-0.785331 1.273681,-1.6764579 z" />
  <path
     id="path1571"
     style="stroke-width:0.01"
     d="m 49.402619,17.652489 c -1.510257,1.460867 -1.207727,-0.698422 -1.851442,-1.3804 -1.011699,-0.228293 -2.914922,0.671263 -2.832197,-0.941561 0.333365,-1.382028 -1.5166,-1.943926 -1.874142,-0.687414 -0.65163,1.621716 -1.138889,3.270701 -0.925719,5.035879 0,1.367599 0,2.735197 0,4.102796 -1.239598,0.09172 -2.251599,0.586006 -2.112069,1.986075 -0.272453,1.335413 0.467074,2.127766 1.81756,1.725527 1.304488,-0.623768 1.879875,1.390153 1.155487,2.137106 -1.628952,1.160452 0.294465,1.256803 1.36373,1.261411 1.244499,0.482658 2.025464,-1.367464 3.173206,-0.219605 1.416168,0.838799 1.664698,-0.357401 1.375787,-1.291075 0.362218,-1.237019 -1.883108,-0.909403 -2.656599,-1.46495 -1.581222,0.0012 -1.317079,-1.552402 -0.7152,-2.519664 0.150121,-1.573078 1.161869,-1.766319 2.524531,-1.397594 1.207587,0.305407 2.345376,-0.155605 3.495667,-0.479331 -0.387358,-2.903678 1.922412,-1.42767 3.293624,-0.751683 0.850568,-0.03409 0.703283,-2.156829 1.1513,-3.033517 0.349829,-1.205713 2.261054,-1.497316 2.078126,-2.96808 0.190918,-1.175965 0.760758,-2.520178 -0.789968,-2.922823 -0.970331,-0.294439 -2.069657,-2.098256 -2.942195,-1.248423 -0.918394,0.709681 -1.61092,2.111392 -2.949552,1.533522 -1.637668,-0.727021 -1.217097,1.328449 -1.566378,2.343172 -0.07119,0.393544 -0.142371,0.787088 -0.213557,1.180632 z" />
  <path
     id="path1573"
     style="stroke-width:0.01"
     d="m 51.690919,22.008889 c 0.623808,1.973344 -1.186742,1.974157 -2.4989,2.3513 -1.005733,0.150993 -2.661597,-0.739183 -3.253629,0.07434 -0.111586,0.961048 -1.602459,2.514624 -0.395108,3.082431 1.179746,0.364176 2.359491,0.728351 3.539237,1.092527 -0.707601,1.343295 0.633387,1.595027 0.2236,2.9465 1.486491,0.229656 0.723899,-1.675021 1.0912,-2.5593 0.726863,-1.180341 1.666029,-1.696579 2.979162,-1.04302 0.938294,-0.08936 2.705324,1.244842 3.074129,0.138298 0.537603,-2.483626 1.075206,-4.967252 1.612809,-7.450878 0.7929,1.488 2.066127,0.301825 1.6099,-0.991494 0.288005,-0.908268 2.544927,0.381137 2.376285,-1.444091 0.556739,-1.489871 1.113477,-2.979743 1.670215,-4.469615 -1.129898,-0.719747 -1.020309,-1.899666 -0.881512,-3.068646 0.358955,-1.4922022 -0.02527,-2.3001513 -1.654951,-1.9613932 -0.739909,0.8020579 -1.03071,2.3087192 -1.597261,3.3827572 -0.822999,1.75424 -1.449573,3.368402 -1.583332,5.313534 -0.228475,1.277725 -2.208808,1.54549 -2.147506,3.018562 -0.490471,0.710886 -0.140236,3.181566 -1.251752,2.592456 -0.958344,-0.250108 -1.93157,-1.28325 -2.912586,-1.00427 z" />
  <path
     id="polygon1575"
     style="fill:#87de5d;stroke-width:0.01"
     d="m 48.455016,31.175689 c -0.426516,0.95005 -1.594642,1.89064 -1.886881,2.929111 0.240481,1.713336 0.890783,3.470146 0.882148,5.157456 -0.107696,1.337855 -1.676199,1.771391 -2.44332,1.135746 -0.802193,-0.739647 -1.137682,1.61876 -1.604727,2.272208 -0.749877,1.279584 1.341568,1.513877 2.159656,1.772673 1.361213,-0.492606 2.726871,-0.06167 4.090124,0.175506 0.476146,-1.024057 0.596724,-2.539903 1.292938,-3.259583 1.622159,-0.04626 3.260205,-0.167488 4.718223,0.685876 1.503515,1.243127 1.270033,-0.811694 1.963316,-1.457694 1.192497,-0.142229 2.880985,0.09933 2.0732,-1.590684 -0.572836,-1.248597 0.404065,-2.13599 1.072633,-3.080565 1.340545,-1.352902 0.05856,-1.567071 -1.26503,-1.35345 -1.145597,-0.06728 -0.158202,-2.45679 -2.057467,-1.991231 -1.221958,-0.498645 -2.177095,0.775449 -3.265513,1.164031 -0.81346,-0.836428 -0.780913,-2.170285 0.07299,-2.955619 0.427772,-0.774829 2.788453,-2.158768 0.868539,-2.193779 -1.144941,-0.13954 -2.449503,-0.77839 -3.495137,-0.607286 -1.115788,0.780718 -1.181826,2.017362 -1.216393,3.267675 -0.700346,1.639618 -1.541127,-0.532056 -1.603396,-0.378389 -0.118634,0.102666 -0.237268,0.205332 -0.355902,0.307998 z" />
  <path
     id="polygon1577"
     style="fill:#87de5d;stroke-width:0.01"
     d="m 39.903916,32.042989 c -0.556125,1.177518 -2.523537,-1.115994 -2.431274,0.297683 0.319191,1.310139 0.638383,2.620278 0.957574,3.930417 -1.203944,0.902391 -2.426373,-0.732301 -3.721838,-0.14776 -0.37675,0.39331 1.287644,2.464726 0.06098,2.385084 0.992333,0.551939 1.298319,-0.89545 2.824478,-0.09868 1.031914,0.426919 3.099429,-2.08414 2.714438,-1.147868 -0.121929,-1.31783 3.241233,-1.473356 2.200057,-1.536309 1.797331,-0.593709 -0.677746,2.049846 1.242904,1.97534 2.436573,0.457149 1.604125,3.623295 1.493382,2.660694 1.296245,0.516874 1.676359,-3.094991 1.94815,-1.910434 -0.304883,-1.530289 -0.609767,-3.060577 -0.91465,-4.590866 0.327207,-0.860815 0.867692,-3.324066 1.504295,-2.723672 -1.114929,-1.001392 -4.147922,0.309933 -3.055122,0.03777 -1.753845,0.05583 -3.377875,-0.528053 -4.999473,-1.120494 -1.435243,0.652473 1.528324,0.672435 0.1761,1.9891 z" />
  <path
     id="path1579"
     style="stroke-width:0.01"
     d="m 39.690419,31.934489 c 0.941276,-0.996625 -1.933031,-1.660723 0.0689,-2.1191 1.191694,0.537061 2.351484,0.958869 2.987808,-0.510335 0.495614,-1.34266 -0.668101,-1.946741 -1.918145,-1.550834 -1.743192,0.389997 -0.606298,-1.961516 -1.880518,-1.274203 -2.343979,0.544904 -1.881149,-3.203554 -3.959233,-2.395412 -1.333591,0.05788 -2.539214,0.228015 -2.078492,1.859987 0.573849,1.418901 -1.41798,1.493312 -0.995053,2.728213 1.661218,0.511915 -1.178399,2.158194 1.00872,2.32264 0.676039,1.313331 1.820811,0.310935 2.789663,0.909946 0.325824,1.728964 -0.779102,4.430008 1.86255,4.465398 1.231806,-0.378177 -0.185086,-2.09685 -0.11074,-3.060814 -0.780196,-1.349363 0.11879,-2.246782 1.414314,-1.304324 0.348163,0.166692 0.513865,0.227212 0.810226,-0.07116 z" />
  <path
     id="polygon1581"
     style="fill:#87de5d;stroke-width:0.01"
     d="m 36.418416,16.267689 c -1.396293,0.264061 -2.414288,1.436848 -3.6357,2.121 2.193343,-0.227328 3.44274,1.876872 4.631399,2.32693 -0.222233,1.1256 -1.191826,2.296341 -0.914671,3.391779 0.458671,1.181653 0.99303,2.263085 2.443638,2.131291 1.158448,0.186857 0.263145,-2.424957 1.58882,-2.353838 1.687626,0.148143 1.044114,-1.52376 1.150514,-2.610166 0,-1.241265 0,-2.482531 0,-3.723796 -2.066805,-0.616544 -2.73165,-3.019035 -3.678419,-0.534891 -0.528527,-0.249436 -1.057054,-0.498873 -1.585581,-0.748309 z" />
  <path
     id="path1583"
     style="stroke-width:0.01"
     d="m 36.486319,16.038589 c 1.171928,0.775819 2.002888,0.934072 1.928841,-0.440222 1.433333,0.07308 1.117424,-1.81848 1.659019,-2.746944 0.33557,-1.133731 0.435306,-2.614962 1.992958,-1.947954 1.374608,0.511634 1.990633,-0.284723 2.326263,-1.5360151 0.317543,-1.0085905 1.734971,-2.3934556 -0.03218,-2.6888649 -0.958077,-0.2236972 -2.863199,-0.06084 -1.795661,-1.516754 0.650425,-1.2770071 -1.801405,-0.907661 -1.552139,0.388054 -1.085533,1.0305667 -2.171067,2.0611333 -3.2566,3.0917 -0.134008,-1.5076597 -0.789799,-2.1332357 -2.236063,-1.4225071 -1.81954,0.5092777 -3.813913,0.5319548 -5.46244,1.5172071 -0.127123,1.1591947 -1.048639,2.536743 0.262567,3.300587 1.147449,0.871113 1.707957,2.064429 1.235746,3.477435 -0.441023,1.103462 0.09599,2.489814 1.206068,2.603243 1.237033,-0.639186 2.28663,-2.008568 3.723622,-2.078965 z" />
  <path
     id="path1585"
     style="stroke-width:0.01"
     d="m 39.888819,57.050589 c -0.993253,3.12271 -3.958688,0.369655 -4.900601,-1.124143 -1.316475,0.06431 -0.768528,2.295465 -1.576336,2.602011 -1.238932,-0.677683 -2.341163,-1.063217 -1.992747,0.799652 -0.12649,1.245237 1.250802,2.06188 1.76496,3.124526 0.912987,0.858031 -0.391415,2.180931 0.959763,2.809603 0.929749,1.009119 1.72578,2.223022 3.202659,2.394235 1.219027,0.443099 2.427602,0.987786 3.736392,0.558473 2.47317,-0.305052 4.94634,-0.610105 7.41951,-0.915157 0.743225,-1.063891 0.499216,-1.995279 -0.3492,-2.887 -0.0452,-1.660867 -0.0904,-3.321733 -0.1356,-4.9826 -0.952626,-0.492825 -2.877961,-0.148761 -2.637314,-1.668239 -0.04952,-1.28053 -0.166622,-2.514035 -1.635387,-2.807115 -1.787214,-1.567128 -2.598749,1.242961 -3.856099,2.095754 z" />
  <path
     id="path1587"
     style="stroke-width:0.01"
     d="m 25.856116,19.622789 c -0.383504,1.563944 -1.263598,3.092177 -1.336194,4.67848 0.182239,1.250811 0.730346,2.547164 -0.1299,3.668207 -1.158592,1.480646 -0.0015,1.640246 1.37213,1.47032 1.903689,0.09013 3.910605,-0.285491 5.583465,0.846143 1.608722,-0.207624 0.182184,-1.470104 0.335348,-2.178618 0.601888,-1.048712 1.324041,-1.485126 1.010816,-2.980537 -0.381798,-1.571306 1.739784,-0.946621 2.697957,-1.342491 1.333345,-0.01493 1.09447,-1.936622 1.692643,-2.843155 0.02081,-0.647188 -1.822232,-0.488935 -1.863562,-1.876649 -1.241811,-0.186339 -2.636897,-0.05788 -3.419814,-1.244715 -1.471558,-0.354201 0.269065,-3.14691 -0.799474,-2.77821 -1.461449,1.284799 -4.183889,1.051664 -4.566297,3.261743 -0.19424,0.43397 -0.373542,0.909026 -0.577118,1.319482 z" />
  <path
     id="path1589"
     style="stroke-width:0.01"
     d="m 13.791116,18.227089 c 0.269809,-1.3666 -0.424409,-3.977156 1.900559,-2.692137 2.193144,-0.369186 6.731858,2.682707 7.404302,0.09824 0.107382,-1.285981 0.36104,-2.432389 1.898298,-2.354018 1.228243,-0.173186 2.342591,-0.492941 2.656661,-1.842574 1.066606,-1.350191 -1.299385,-1.353245 -2.09901,-1.841804 C 24.46477,9.435224 23.314712,8.267977 22.274221,8.8559584 21.277114,10.070759 20.154693,8.5272473 19.267489,8.6122212 c -1.038737,0.8946136 -1.003044,2.2206218 -1.148073,3.4740678 -0.951141,0.730232 -1.979021,1.134715 -3.158966,0.696188 -2.547544,-0.359263 -5.0950892,-0.718525 -7.642634,-1.077788 -0.6924824,0.855104 -2.5048255,1.592807 -1.1258363,2.665075 0.3638279,1.229009 0.1671212,2.645648 0.3189363,3.945625 1.7931667,0.629367 3.586333,1.258733 5.3795,1.8881 0.633567,-0.6588 1.267133,-1.3176 1.9007,-1.9764 z" />
  <path
     id="polygon1591"
     style="fill:#87de5d;stroke-width:0.01"
     d="m 14.492616,30.648289 c 1.761574,2.836082 1.149754,-1.80779 2.288019,-1.548847 1.097767,1.024259 2.094498,0.623519 3.050564,-0.350758 1.054845,-0.292302 2.323775,0.380803 3.461432,0.461935 2.396442,-1.55816 0.247809,-4.760073 1.48316,-7.039328 0.06591,-0.950644 1.636067,-2.81442 -0.143168,-2.644989 -1.008935,-0.3003 -3.063771,0.07937 -2.079293,-1.516906 0.931769,-1.55704 -1.298933,-1.072363 -2.218446,-1.434201 -2.028289,-0.349369 -4.056579,-0.698737 -6.084868,-1.048106 0.379662,2.150055 -0.76905,3.629171 -2.271683,4.925777 -1.801964,-0.558765 -3.6394756,-1.266856 -5.455117,-1.883077 -0.2924407,1.42911 0.4566856,2.229535 1.7440911,2.705057 0.9617094,0.790911 3.2024149,1.082201 2.5616099,2.76215 -1.141553,2.11272 1.329461,2.723788 2.640937,3.675153 0.990842,1.396507 -1.33505,1.781172 1.022762,2.93614 z" />
  <path
     id="polygon1593"
     style="fill:#87de5d;stroke-width:0.01"
     d="m 56.779916,42.728789 c -1.818626,-0.667337 -5.739301,-2.646215 -6.291747,0.149784 -0.117288,3.159325 -2.952385,1.051508 -5.010553,1.819914 -0.8943,2.327767 -1.7886,4.655533 -2.6829,6.9833 -2.558121,-0.269757 -1.813215,3.785005 0.254051,2.644636 1.796207,1.819541 3.105654,-0.02691 5.077899,-0.05591 2.201222,0.151488 4.397813,0.283818 6.222574,-1.122737 1.303577,-0.333451 1.782887,-1.366523 2.03906,-2.588991 0.411981,-1.451045 1.132085,-2.893492 1.35422,-4.349836 -0.320868,-1.160052 -0.641737,-2.320114 -0.962604,-3.48016 z" />
  <path
     id="polygon1595"
     style="fill:#87de5d;stroke-width:0.01"
     d="m 39.109116,38.638489 c 2.348058,-0.214642 1.563291,3.034074 -0.5884,1.435 0.536658,2.762503 -2.225439,4.024798 -2.232576,6.483381 1.395542,1.544332 -2.971544,0.530256 -1.092817,2.119606 1.038821,0.971829 1.153645,2.192996 3.077896,2.218279 1.454529,0.266146 3.107701,1.356629 4.418405,0.398766 0.847264,-2.205411 1.694528,-4.410821 2.541792,-6.616232 -1.295191,-0.366031 -3.01251,-1.028696 -1.837173,-2.586757 0.237994,-1.788047 1.867606,-2.010438 1.683569,-3.512643 -0.723486,-0.654317 -2.950281,-0.590439 -2.295425,-1.90325 0.858874,-1.431715 -2.812376,-0.746094 -2.245238,0.639832 0.05168,0.750893 -0.979195,0.893185 -1.430033,1.324018 z" />
  <path
     id="polygon1597"
     style="fill:#87de5d;stroke-width:0.01"
     d="m 32.538816,38.001989 c -1.047871,-0.907547 -1.808393,-2.397819 -3.389812,-2.223367 -0.730247,0.502351 -0.549672,2.469635 -2.150376,1.464937 -0.975573,-0.366893 -2.541507,-0.596129 -2.100695,0.973799 0.07426,2.458477 0.148522,4.916954 0.222783,7.375431 1.505752,0.51791 2.799488,-2.61133 2.526848,-1.674108 0.14605,-1.381397 0.292101,-2.762795 0.438152,-4.144192 1.092879,0.193732 2.702152,-0.321781 2.793306,1.247773 0.112153,1.504527 3.82809,1.877388 2.627529,1.706438 1.146928,0.294242 4.191584,-0.639703 3.272288,-0.05988 1.532572,1.776039 1.821984,-4.603772 1.443209,-2.103702 -0.491281,-0.908819 -3.121649,-1.610139 -2.706161,-1.270992 -0.828083,-0.790042 -1.871933,-1.391198 -2.261057,0.114127 -0.81589,0.395995 -2.354954,-0.638314 -0.716014,-1.406261 z" />
  <path
     id="polygon1599"
     style="fill:#87de5d;stroke-width:0.01"
     d="m 33.772416,32.136589 c -1.008152,-1.383116 -2.84403,-1.61261 -4.2662,-2.4187 -1.2849,-0.0156 -2.5698,-0.0312 -3.8547,-0.0468 -0.07563,1.5191 -0.151267,3.0382 -0.2269,4.5573 -2.553851,0.115804 1.475182,3.556749 0.1165,2.1732 0.555038,0.516639 3.023673,-0.750202 2.809211,0.273545 -0.05972,-1.540792 3.363717,-0.323777 2.418044,-0.77819 0.416531,0.834819 0.76927,3.328784 1.688689,2.509593 -1.079089,1.153169 1.388638,-1.698804 1.414527,-0.357826 0.216681,-1.125103 0.120814,-2.563923 1.678529,-2.278322 -0.103094,-1.2279 0.233765,-2.705007 -0.147803,-3.775168 -0.448143,-0.350783 -1.113197,0.130904 -1.629897,0.141368 z" />
  <path
     id="polygon1601"
     style="fill:#87de5d;stroke-width:0.01"
     d="m 27.073816,57.036189 c 0.947784,-0.637532 3.325433,0.668713 2.561089,-1.80025 -0.524135,-1.959454 1.680489,-1.564564 1.644911,-3.59105 1.738999,-0.0906 1.114432,2.639163 2.949439,2.455595 0.519779,-0.970039 2.511239,-3.950402 1.027872,-5.107405 -2.508818,-1.281753 1.817481,-1.564429 0.725648,-2.746217 -0.763908,-1.443643 2.875084,-2.883625 0.642445,-3.389473 -1.149157,1.039895 -2.7168,-0.03084 -4.075988,-0.06598 -1.536848,0.195127 -1.700923,-1.291799 -2.178567,-2.394509 -0.687445,-0.479556 -2.668227,-0.777811 -2.196223,0.784705 -0.223682,1.155743 -0.06585,2.552207 -0.530184,3.556105 -1.587382,0.777155 -2.948847,1.651737 -2.41273,3.72964 0.08098,1.527688 2.349522,2.205965 1.906481,3.976349 1.008094,1.574142 -1.729343,4.216619 -0.06419,4.592489 z" />
  <path
     id="polygon1603"
     style="fill:#87de5d;stroke-width:0.01"
     d="m 18.055616,36.915889 c 0.601508,-0.981906 3.92951,-0.635402 2.762565,-1.15882 1.295574,0.07217 2.680869,0.8541 3.916835,0.45472 -1.183356,-1.187628 0.563503,-3.204795 0.481345,-2.548805 0.06629,-1.331599 0.13257,-2.663197 0.198855,-3.994795 -2.081874,0.05918 -3.890737,-0.511504 -3.360088,-0.45858 -2.136301,-0.866857 -3.569487,0.659588 -3.188386,0.533021 -0.96143,0.64469 -0.282438,4.117576 -0.121926,3.112259 -0.726312,1.141066 -1.233054,2.501127 -2.0897,3.5122 0.466833,0.182933 0.933667,0.365867 1.4005,0.5488 z" />
  <path
     id="polygon1605"
     style="fill:#87de5d;stroke-width:0.01"
     d="m 22.723816,46.269489 c -0.2766,-3.356867 -0.5532,-6.713733 -0.8298,-10.0706 -1.11522,-0.135532 -2.633953,-0.912352 -3.287358,0.449254 -0.659046,1.412425 -2.334037,-1.168865 -2.839797,0.623768 -1.092508,0.834166 -0.199138,4.313955 -0.574818,3.135774 0.355469,1.764163 0.641155,3.477399 1.041173,5.224304 1.836094,0.174102 3.750526,0.715138 5.53963,0.669138 0.399099,-0.225279 0.673774,-0.637519 0.95097,-0.03164 z" />
  <path
     id="polygon1607"
     style="fill:#87de5d;stroke-width:0.01"
     d="m 13.683616,43.653189 c 0.974673,-0.908793 2.343863,-0.188025 1.533871,-1.877859 -0.119581,-1.146725 -0.389488,-4.566081 -0.529657,-3.480223 0.69045,-0.917357 2.926364,-3.152051 2.1465,-2.516248 0.611025,-1.429158 2.108025,-2.686635 1.512246,-4.349642 0.402091,-1.094511 -2.383635,-1.078389 -1.875576,-1.796465 -0.444141,0.743414 -0.348599,3.349066 -1.458956,1.793629 -0.969927,-1.360888 -2.995367,2.199002 -2.249886,1.620206 -0.602915,1.086538 -2.136217,1.32529 -2.314583,2.700275 -0.801333,2.057155 -1.901938,4.009419 -2.463459,6.150627 0.737813,1.500748 3.645861,1.461277 2.965441,1.266573 0.911353,0.163042 1.822706,0.326085 2.734059,0.489127 z" />
  <path
     id="polygon1609"
     style="fill:#87de5d;stroke-width:0.01"
     d="m 16.873716,65.190489 c 1.648004,-1.753062 -2.279362,-3.700249 1.278612,-2.985214 1.004118,0.09539 2.834859,-1.260822 3.070465,0.184131 0.779711,1.172374 -1.397357,1.425734 -0.800819,2.850794 -0.798669,1.492471 5.283309,-0.275925 2.82849,0.363367 1.155866,-0.271723 2.410318,0.685456 3.456912,0.422993 0.79018,-1.575666 0.0096,-3.511307 0.185741,-3.181985 -0.668691,-0.994398 -1.81249,-2.001817 -0.437744,-2.940213 0.378812,-0.820837 -2.020855,-2.424569 -1.588702,-2.259915 -0.872776,0.600322 -3.827036,1.285444 -2.588365,1.900487 -0.801119,-0.612633 0.845806,-4.138018 0.442476,-3.228352 0.628542,-1.040014 0.283257,-4.478626 0.55959,-3.291 -0.252741,-2.15163 -0.213548,-4.424624 -0.64899,-6.500301 -0.713745,-0.285297 -4.190237,-0.678202 -3.119986,-0.183582 -0.926583,0.08576 -3.311023,0.713164 -3.145043,-0.08471 0.216286,1.773664 1.256041,3.579845 0.37047,5.310002 -0.360914,1.504628 -1.273232,2.993833 -0.538203,4.529118 0.145826,1.485883 1.291963,3.066873 0.306843,4.453274 -0.626482,1.422836 -1.252965,2.845672 -1.879447,4.268508 -1.823288,0.165725 0.599574,3.449092 0.317682,2.540222 0.516658,1.190821 2.095266,1.151491 3.120418,1.753278 -0.105033,-0.977917 1.264556,-2.839775 -0.206811,-2.998662 -0.609316,-0.0987 -0.92251,-0.26751 -0.983589,-0.922238 z" />
  <path
     id="path1611"
     style="stroke-width:0.01"
     d="m 22.986716,46.579789 c 0.218033,2.6462 0.436067,5.2924 0.6541,7.9386 0.53592,0.384303 1.225135,2.572574 1.775,1.9269 1.074094,0.557459 1.534851,-1.554438 1.477259,-2.406378 -0.198033,-1.048448 0.562849,-2.557318 -0.629759,-3.128222 0.008,-1.157774 -1.956109,-1.500696 -1.231666,-2.90433 0.385204,-1.991813 -0.431258,-3.413392 -0.24171,-5.494384 -0.497991,-1.984372 0.339545,-5.379794 0.128376,-6.125386 -0.752245,0.885393 -2.913635,-0.944346 -2.735519,0.436065 0.267957,3.252379 0.536042,6.50475 0.803919,9.757135 z" />
  <path
     id="polygon1613"
     style="fill:#87de5d;stroke-width:0.01"
     d="m 6.941216,46.734289 c 0.872893,-0.434217 2.729741,-1.148766 2.620904,0.478172 -0.062802,1.641596 3.953096,0.951294 2.919379,0.774163 0.893554,-0.849122 1.140238,-4.460591 0.942363,-3.264066 0.64852,-1.483797 -3.377044,-1.756568 -2.519093,-1.327007 C 7.985228,43.006 5.179297,42.161553 2.363916,41.309889 c -0.754439,0.880865 -2.914902,3.559369 -2.433798,2.583072 -0.497443,1.746135 1.76894,0.834984 1.568747,2.385976 -0.301892,2.107704 3.171646,3.255255 1.838151,2.437952 0.820245,-0.74787 1.191535,-2.458984 2.562933,-2.02434 0.347089,0.01391 0.694178,0.02783 1.041267,0.04174 z" />
  <path
     id="polygon1615"
     style="fill:#87de5d;stroke-width:0.01"
     d="M 4.754816,40.619289 C 4.588851,38.85914 6.683782,41.014697 6.841915,39.11452 6.010351,38.323277 4.903542,38.349364 6.171356,36.998217 6.984909,35.568708 7.798463,34.139198 8.612016,32.709689 7.857308,30.645371 4.564576,33.312775 5.82673,32.605363 c -1.254659,0.540474 -2.504122,4.473763 -1.939726,2.482358 -0.338329,1.765422 -0.676659,3.530845 -1.014988,5.296268 0.605213,0.02518 1.352936,0.61091 1.8828,0.2353 z" />
  <path
     id="polygon1617"
     style="fill:#87de5d;stroke-width:0.01"
     d="m 8.410316,31.876289 c 1.031041,1.063514 -1.23149,4.251276 -0.86699,3.188486 -0.595203,1.045772 -2.380813,4.183085 -1.78561,3.137314 1.989117,-0.123946 1.508998,2.431993 1.088414,2.070325 1.485827,0.984253 2.675314,-2.843818 2.171639,-1.790182 0.720033,-1.34139 1.008351,-3.023588 1.993479,-4.155702 1.453076,-0.816616 2.158341,-2.369237 3.157768,-3.632341 -0.787447,-1.132673 -4.379744,-0.516185 -3.14825,-0.832855 -1.33341,0.03193 -2.615861,-0.64398 -3.92915,-0.891545 -0.685977,0.967162 -1.833183,2.01755 -0.101309,2.548423 0.437627,0.194843 0.954268,0.225213 1.420009,0.358077 z" />
  <path
     id="path1619"
     style="stroke-width:0.01"
     d="M 8.030616,40.841589 C 7.0938696,40.883295 5.2059907,39.407968 4.996545,40.6097 4.6662025,41.556374 1.6314948,40.011593 3.1156938,41.283644 c 1.6358358,0.428836 3.2301572,1.042848 4.8936222,1.348445 -0.3825797,-0.625141 -0.1895106,-1.144811 0.0213,-1.7905 z" />
  <path
     id="path1621"
     style="stroke-width:0.01"
     d="m 6.991416,28.697889 c 1.8363621,0.437491 3.641718,1.317181 5.549072,0.742221 1.474217,-0.21586 1.120597,-1.929318 -0.229336,-2.165432 -0.864532,-0.594256 -2.5012179,-1.081917 -1.87772,-2.438311 0.516602,-1.20693 0.263695,-2.340385 -1.1188945,-2.693809 C 8.3617918,21.864257 7.0178499,20.267446 6.3273767,20.873125 5.1782155,21.991022 6.5426333,22.866161 7.1934303,23.81022 8.1477064,25.025833 7.054714,28.296026 5.320503,28.366944 3.8941112,28.237798 3.4242231,29.429267 2.8678799,30.501371 2.0247548,31.641381 4.6447833,31.3573 5.079626,32.159565 5.4132552,33.330436 7.6688388,31.141073 5.774687,30.950315 5.3077949,30.554891 6.826832,29.241503 6.991416,28.697889 Z" />
  <path
     id="path1623"
     style="stroke-width:0.01"
     d="m 22.914016,8.384789 c 1.737767,0.6316333 3.475533,1.2632667 5.2133,1.8949 0.116915,0.995738 -0.621442,2.348791 -1.427492,2.81782 -0.927417,0.471276 -2.655086,0.178963 -3.081124,1.128647 -0.305113,1.590434 -0.618992,3.159682 -1.063684,4.716633 1.02366,-0.07189 2.63461,0.929192 3.277717,0.16203 0.601956,-1.003871 0.591783,-2.677149 2.048083,-2.74673 2.154451,-0.578064 5.079454,-2.33002 2.30902,-4.115346 -1.566391,-1.059196 -0.851987,-3.8683005 0.92328,-4.312854 2.014201,-0.4353667 4.028402,-0.8707333 6.042603,-1.3061 0.794596,-0.2370009 2.408758,0.070277 1.944946,-1.7123458 0.358446,-1.4523911 -1.898302,-0.00784 -2.7602,-0.1084067 C 34.669364,4.893745 33.018068,4.0335897 31.354849,3.7458982 29.717505,3.3229285 28.08016,2.8999587 26.442816,2.476989 25.464133,3.4229964 24.156683,4.1863751 23.378128,5.2435525 23.223424,6.2906313 23.06872,7.3377102 22.914016,8.384789 Z" />
  <path
     id="path1625"
     style="stroke-width:0.01"
     d="m 41.121619,51.942189 c -1.702267,-0.479267 -3.404533,-0.958533 -5.1068,-1.4378 -0.4682,1.316167 -0.9364,2.632333 -1.4046,3.9485 -1.402292,-0.06668 -2.114765,-0.942141 -2.478919,-2.225999 -1.313857,-1.17713 -0.55477,2.076598 -2.021864,1.576298 -0.417584,0.492465 -0.351117,2.51993 -0.05745,2.972664 0.590062,0.676399 1.904113,0.843147 2.909086,1.315674 1.222228,0.519893 0.417002,-2.285989 1.714533,-2.303056 1.631788,-0.165887 3.247508,4.764413 4.908187,1.36185 0.40721,-1.087103 3.003135,-2.11505 1.345327,-3.205731 0.06417,-0.667467 0.128333,-1.334933 0.1925,-2.0024 z" />
  <path
     id="polygon1627"
     style="fill:#87de5d;stroke-width:0.01"
     d="m 25.157816,57.326689 c 0.59665,0.925383 2.45597,2.013741 1.178211,3.126331 -0.942728,0.920621 1.366487,3.832576 1.121589,2.857869 -0.324432,0.972093 -2.147602,3.394887 -0.997665,3.070825 -1.573067,-0.44053 -3.152053,-0.776053 -4.772871,-0.36941 -0.974032,0.386572 -3.008783,2.505317 -2.994351,1.081625 -0.242334,1.157644 -0.860487,2.521212 0.853981,2.60666 1.096122,0.55234 4.460085,-0.462952 3.328186,0.249373 1.106734,-0.638558 4.309838,0.830116 3.254804,0.159871 2.103398,0.82212 4.16682,1.900164 6.294563,2.56643 1.933684,-0.175825 3.867369,-0.351649 5.801053,-0.527474 0.861316,-0.880241 1.182212,-4.398599 1.236693,-3.163202 0.12108,-0.852623 -3.531567,-1.8503 -2.73382,-1.30118 -1.661873,-0.380055 -2.406257,-2.15947 -3.627473,-3.211618 0.815041,-1.534493 -0.807141,-2.609196 -1.491989,-3.809735 -1.133337,-0.705697 -1.69674,-3.446296 -0.696196,-3.017691 -1.115874,-0.32529 -1.261968,2.372346 -2.553016,1.121701 -1.567772,-0.0357 -0.819758,-1.880255 -2.377565,-1.869199 -0.56605,-0.395793 -0.56673,0.09465 -0.824134,0.428824 z" />
  <path
     id="polygon1629"
     style="fill:#87de5d;stroke-width:0.01"
     d="m 17.775516,62.519089 c -0.02541,1.027145 0.485735,4.010552 -0.313343,3.223928 0.838977,0.325704 2.905744,0.842231 2.727446,-0.564021 -0.544203,-1.460742 1.566558,-1.778575 0.701489,-3.014043 -0.601246,-0.476585 -2.219275,0.355066 -3.115592,0.354136 z" />
  <path
     id="polygon1631"
     style="fill:#87de5d;stroke-width:0.01"
     d="m 23.608216,54.886089 c -0.565939,1.438909 -1.489747,2.783765 -1.4331,4.3863 1.234508,0.663253 3.412457,-2.413681 2.553807,-1.828645 0.83958,-0.701958 -0.906138,-1.810592 -1.120707,-2.557655 z" />
  <path
     id="polygon1633"
     style="fill:#87de5d;stroke-width:0.01"
     d="m 28.469416,57.271589 c -1.435184,-1.185148 -1.554138,1.236231 -0.147475,1.223866 0.819789,1.061486 0.890435,-1.754081 1.654535,-1.468549 -0.502354,0.08156 -1.004707,0.163122 -1.50706,0.244683 z" />
  <path
     id="polygon1635"
     style="fill:#87de5d;stroke-width:0.01"
     d="m 35.864516,38.399789 c -0.646248,1.462615 3.295422,1.811364 2.4522,1.3916 0.934887,0.341529 2.705734,0.689508 1.786301,-0.707977 -1.398395,-0.316215 -2.822602,-0.469448 -4.238501,-0.683623 z" />
</svg>
