<?xml version="1.0" encoding="UTF-8" standalone="no"?>
<svg
   xmlns:svg="http://www.w3.org/2000/svg"
   xmlns="http://www.w3.org/2000/svg"
   xmlns:sodipodi="http://sodipodi.sourceforge.net/DTD/sodipodi-0.dtd"
   xmlns:inkscape="http://www.inkscape.org/namespaces/inkscape"
   width="63.814098mm"
   height="72.748596mm"
   viewBox="0 0 63.814098 72.748596"
   version="1.1"
   id="svg172"
   inkscape:version="1.0.1 (3bc2e813f5, 2020-09-07)"
   sodipodi:docname="drawing.svg">
  <defs
     id="defs166" />
  <sodipodi:namedview
     id="base"
     pagecolor="#ffffff"
     bordercolor="#666666"
     borderopacity="1.0"
     inkscape:pageopacity="0.0"
     inkscape:pageshadow="2"
     inkscape:zoom="1.979899"
     inkscape:cx="172.07111"
     inkscape:cy="106.6346"
     inkscape:document-units="mm"
     inkscape:current-layer="svg172"
     inkscape:document-rotation="0"
     showgrid="false"
     inkscape:window-width="960"
     inkscape:window-height="995"
     inkscape:window-x="26"
     inkscape:window-y="23"
     inkscape:window-maximized="0" />
  <path
     style="fill:#87de5d;stroke-width:0.01"
     d="m 62.490416,8.518589 -0.5012,-0.2666 1.1777,-7.6933 -6.0596,-0.6135 -3.605,3.1113 4.8485,3.2566 -0.2572,1.7791 -0.0323,0.0657 -0.3398,0.3511 -3.6857,-0.6819 -1.6037,1.3774 -0.0789,0.3623 1.9334,2.5622 0.2449,-0.2277 3.8256,2.4983 2.5018,-5.942 z"
     id="polygon1567" />
  <path
     style="stroke-width:0.01"
     d="m 58.095819,6.426089 -4.865,-3.2676 0.004,-0.0059 -0.4437,-0.1586 -2.8282,2.3247 -0.0846,0.0268 -4.6173,-0.388 -0.7906,1.5122 1.2187,0.6371 c -0.6361,1.3884 -1.265,2.7801 -1.9163,4.1615 l -2.8873,-0.2161 -1.3981,4.4627 0.5323,1.1198 1.6691,0.6648 1.1686,-3.4254 1.7174,-0.1762 0.5547,2.3374 h 2.8001 l 0.4598,1.8774 0.8019,-0.417 0.6801,-3.7607 2.3839,0.2827 1.8573,-1.7269 -2.0136,-2.6683 0.1103,-0.5065 0.0388,-0.0648 1.7193,-1.4766 3.6725,0.6792 0.2252,-0.2328 z"
     id="path1569" />
  <path
     style="stroke-width:0.01"
     d="m 49.402619,17.652489 -1.1708,0.6089 -0.4871,-1.9893 h -2.8023 l -0.5501,-2.3181 -1.36,0.1396 -1.1132,3.2629 v 6.4253 l -1.7584,0.4396 -0.3671,1.3534 0.1219,1.7523 0.5484,0.2024 2.2926,-0.0713 0.4002,1.7304 -1.1728,1.3761 0.6162,0.2076 2.4907,0.193 1.1642,-0.7627 1.9614,0.8675 0.8202,-0.7097 -0.4904,-0.219 0.264,-1.3689 -3.824,-1.1803 -0.2161,-0.6702 0.002,-0.0776 1.1462,-3.0232 3.2729,0.302 2.15,-0.6035 c 0.0328,-0.3523 0.1666,-1.7043 0.285,-1.7382 0.0666,-0.0191 0.4602,-0.1468 0.4612,-0.1471 l 0.0838,0.0056 2.8008,1.2824 0.902,-3.532 0.036,-0.0587 1.8034,-1.6094 0.4952,-3.1379 -3.6513,-2.3846 -2.2216,2.0657 -2.2717,-0.2695 z"
     id="path1571" />
  <path
     style="stroke-width:0.01"
     d="m 51.690919,22.008889 c -0.002,6e-4 -0.1213,1.6064 -0.1216,1.6109 l -0.006,0.083 -2.3287,0.6537 -0.0426,0.0037 -3.1164,-0.2876 -1.0679,2.8166 0.1657,0.5136 3.9091,1.2067 -0.2686,1.393 0.5393,0.2409 -0.0471,1.3126 0.8525,-0.1009 0.2087,-2.3895 0.03,-0.0689 1.2791,-1.4224 4.5775,1.0215 0.1148,-0.1255 1.6947,-7.8292 0.8748,0.831 0.7351,-0.4677 v -1.7111 h 1.9698 l 2.0767,-5.5574 -0.9389,-1.0515 -0.03,-0.0837 0.1731,-3.8298 -1.9109,-0.0714 -2.5483,6.0521 -0.0396,-0.0259 -0.4853,3.0746 -0.0379,0.0698 -1.8073,1.613 -0.9633,3.7718 -3.0164,-1.3812 c -0.1035,0.0335 -0.367,0.1189 -0.4239,0.1352 z"
     id="path1573" />
  <path
     style="fill:#87de5d;stroke-width:0.01"
     d="m 48.455016,31.175689 0.0441,0.0195 -1.9688,2.7198 1.0158,5.0983 -0.0102,0.0754 -0.7633,1.5471 -1.7734,-0.0444 0.0155,-0.3869 -0.5368,-0.0212 -1.2659,2.9267 0.0874,0.5366 2.0722,0.8317 1.695,-0.3154 h 0.0421 l 2.5433,0.4555 1.0994,-3.2583 3.0632,-0.0203 0.043,0.0079 2.9726,1.1475 0.6039,-1.887 2.4599,-0.2711 -0.3771,-2.6019 0.0207,-0.0851 1.6473,-2.3139 0.2578,-0.7739 h -2.4666 l -0.1996,-1.7167 -2.1616,-0.4473 -2.4306,1.3368 -0.6497,-1.1263 -0.0125,-0.0874 0.3156,-1.2625 0.0278,-0.0509 2.2048,-2.4115 -4.3102,-0.962 -1.1606,1.2907 -0.222,2.5423 -1.3174,0.1558 0.0435,-1.2089 z"
     id="polygon1575" />
  <path
     style="fill:#87de5d"
     d="m 5654.59,4511.18 -4.63,6.33 -48.4,33 -173.85,-63.21 -25.41,16.04 104.92,430.65 -80.34,33.48 -8.17,0.33 -187.79,-61.66 -120.13,16.38 -35.93,194.78 -1.75,4.39 -2.02,3.06 145.92,68.69 15,-73.13 297.05,42.71 0.33,-1.64 12.36,2.53 146.51,-92.73 20.8,-117.17 2.58,-5.56 41.43,-49.31 7.91,-4.16 231.72,-23.38 -41.16,164.64 244.85,113.61 -7.73,193.19 138.3,3.46 67.86,-137.56 -102.81,-516.03 185.83,-256.71 -185.92,-82.23 -109.05,71.44 -7.35,1.9 -254.48,-19.72 -2.87,-0.6 -281.19,-94.72 -47.55,21.06 4.79,27.84 92.38,44.64 z"
     transform="matrix(0.01,0,0,0.01,-16.641984,-13.068811)"
     id="polygon1577" />
  <path
     style="stroke-width:0.01"
     d="m 39.690419,31.934489 0.2493,-0.8203 -0.8518,-0.4114 -0.0999,-0.5798 0.6862,-0.3038 0.0851,-0.0038 1.9835,0.6681 1.157,-1.3576 -0.3298,-1.4258 -2.1228,0.066 -0.0439,-0.007 -0.7131,-0.2632 -0.0852,-1.2257 -0.086,0.3175 -2.2558,-0.4257 c -0.3748,-0.751 -0.7495,-1.5021 -1.126,-2.2524 l -3.1944,0.487 -0.0591,2.8518 -0.6794,0.1647 -0.4471,1.1486 0.8698,0.6099 -0.7618,1.3478 1.2266,0.5513 0.0383,0.0273 0.7236,0.7792 1.2754,-0.2813 0.0855,0.0134 0.5907,0.3502 c -0.005,1.2744 -0.0127,2.549 -0.0195,3.8234 l 1.7908,0.5879 0.5765,-0.2402 -1.0416,-4.275 0.4954,-0.3128 1.7336,0.6302 z"
     id="path1579" />
  <path
     id="polygon1581"
     style="fill:#87de5d;stroke-width:0.01"
     d="m 36.418416,16.267689 c -0.235076,0.0539 -0.493722,0.04851 -0.714032,0.139551 -0.973889,0.660483 -1.947779,1.320966 -2.921668,1.981449 0.143268,0.205162 0.405303,0.152783 0.621435,0.199944 0.652822,0.08562 1.305643,0.171237 1.958465,0.256856 0.275767,0.459533 0.551533,0.919067 0.8273,1.3786 0.451467,0.04233 0.902933,0.08467 1.3544,0.127 -0.406,1.1367 -0.812,2.2734 -1.218,3.4101 0.3651,0.7301 0.7302,1.4602 1.0953,2.1903 0.642067,0.1212 1.284133,0.2424 1.9262,0.3636 0.206933,-0.763133 0.413867,-1.526267 0.6208,-2.2894 0.571267,-0.142833 1.142533,-0.285667 1.7138,-0.4285 0,-2.015433 0,-4.030867 0,-6.0463 -0.602569,-0.247343 -1.219884,-0.471433 -1.813282,-0.733239 -0.181338,-0.262821 -0.28469,-0.582706 -0.436273,-0.8673 -0.0708,-0.154287 -0.114135,-0.362688 -0.323779,-0.243412 -0.211722,0.04022 -0.423444,0.08043 -0.635166,0.120651 0.0016,0.305787 0.07427,0.619598 0.03,0.9202 -0.112991,0.09843 -0.183328,0.364981 -0.32489,0.350813 -0.58687,-0.276971 -1.17374,-0.553942 -1.76061,-0.830913 z" />
  <path
     style="stroke-width:0.01"
     d="m 36.486319,16.038589 1.6677,0.7869 0.134,-0.1828 -0.063,-1.0082 1.0391,-0.1974 1.452,-4.6347 2.9124,0.2179 0.281,-0.5972 1.4719,-3.2111 -1.0202,-0.5334 -0.0124,0.0238 -2.1505,-0.4389 0.5874,-1.7621 -1.3029,-0.1335 -0.4408,1.1389 -0.0286,0.0431 -3.2566,3.0917 -0.5335,-1.7905 -6.045603,1.3067 -1.1194,0.5785 -0.5279,2.4499 2.029303,2.1839 0.018,0.0259 c 0.001,0.0019 0.3521,0.6841 0.072,1.1551 l -0.2503,2.5899 1.2031,1.0852 3.0374,-2.06 0.0476,-0.0189 0.7299,-0.1184 z"
     id="path1583" />
  <path
     style="stroke-width:0.01"
     d="m 39.888819,57.050589 -0.4063,0.9749 -0.0517,0.0169 c -0.004,0.0012 -1.3248,0.4288 -1.5856,0.6151 -0.3367,0.2406 -2.3255,-2.3383 -2.6749,-2.7966 l -0.8486,0.3055 -0.7304,2.4346 -1.966,-0.7947 -0.1019,-0.023 -0.1454,2.1539 2.1351,2.9737 0.0222,0.0601 0.0394,0.5129 -0.003,0.0361 -0.2123,0.886 2.5212,2.752 3.6656,1.2465 8.9562,-1.1047 0.5828,-1.4937 -0.9116,-1.3295 -0.0204,-0.0638 -0.1356,-4.9826 -2.5173,-0.708 -0.3816,-3.0532 -2.4196,-1.2578 -0.7516,0.3512 0.01,0.0115 c -0.71,0.8185 -1.3116,1.52 -2.0683,2.2767 z"
     id="path1585" />
  <path
     style="stroke-width:0.01"
     d="m 25.856116,19.622789 -1.4024,4.2971 0.4882,2.8123 -1.0761,2.4125 -0.0389,0.2684 5.7534,0.0794 2.069103,0.93 0.6673,-1.1806 -0.8464,-0.5935 0.5589,-1.4356 0.6225,-0.151 0.0594,-2.869 3.3947,-0.5177 1.1136,-3.1176 -1.1706,-0.1097 -0.83,-1.3833 -2.35,-0.3082 -0.0638,-0.0291 -1.651903,-1.49 0.236103,-2.4435 c -0.846003,0.5966 -3.415603,1.7821 -3.430303,1.7875 l -0.9157,0.299 -1.1773,2.7467 z"
     id="path1587" />
  <path
     style="stroke-width:0.01"
     d="m 13.791116,18.227089 0.2443,-2.9768 c 2.9445,0.5056 5.8888,1.0139 8.8328,1.5216 l 0.6237,-3.1182 3.425,-0.8538 1.0609,-1.9704 -0.0612,-0.3752 -5.1256,-1.863 -1.6273,0.8334 -1.7801,-0.9673 -0.9847,1.3129 -0.2795,2.316 -1.5504,0.8977 -0.0754,0.0147 -9.1758,-1.294 -1.7794,1.7052 0.7918,1.1629 0.1807,3.7426 5.3795,1.8881 z"
     id="path1589" />
  <path
     id="polygon1591"
     style="fill:#87de5d;stroke-width:0.01"
     d="m 14.492616,30.648289 c 0.346961,0.334897 0.75728,0.662578 1.1286,0.9947 0.2725,-0.908333 0.545,-1.816667 0.8175,-2.725 0.609333,0.323367 1.218667,0.646733 1.828,0.9701 0.598933,-0.4362 1.197867,-0.8724 1.7968,-1.3086 1.1633,0.227367 2.3266,0.454733 3.4899,0.6821 0.378498,-0.83279 0.766978,-1.683919 1.1494,-2.525 -0.147593,-0.969178 -0.359575,-1.943138 -0.467411,-2.909363 0.450637,-1.380912 0.901274,-2.761825 1.351911,-4.142737 -1.108467,-0.183667 -2.216933,-0.367333 -3.3254,-0.551 0.184167,-0.7104 0.368333,-1.4208 0.5525,-2.1312 -2.8548,-0.491733 -5.7096,-0.983467 -8.5644,-1.4752 -0.09543,0.942076 -0.119933,1.902541 -0.2594,2.8332 -0.678333,0.7054 -1.356667,1.4108 -2.035,2.1162 -1.8108,-0.635567 -3.6216,-1.271133 -5.4324,-1.9067 0.0228,0.578867 0.0456,1.157733 0.0684,1.7366 1.359933,0.785967 2.719867,1.571933 4.0798,2.3579 0.13061,0.270334 0.412437,0.514912 0.256911,0.83398 -0.117525,0.716685 -0.311968,1.441656 -0.381348,2.153154 0.05848,0.339308 0.342381,0.484705 0.616586,0.638441 0.819917,0.505642 1.639834,1.011283 2.459751,1.516925 0.04033,0.27387 0.392233,0.587322 0.198677,0.831478 -0.216559,0.292508 -0.433118,0.585015 -0.649677,0.877522 0.4401,0.3775 0.8802,0.755 1.3203,1.1325 z" />
  <path
     style="fill:#87de5d;stroke-width:0.01"
     d="m 56.779916,42.728789 c -1.010935,-0.378822 -2.014057,-0.800366 -3.029835,-1.152712 -0.942922,0.0063 -1.885843,0.01254 -2.828765,0.01881 -0.3702,1.097133 -0.7404,2.194267 -1.1106,3.2914 -0.921551,-0.154696 -1.843242,-0.350776 -2.764706,-0.479592 -0.522798,0.09726 -1.045596,0.194528 -1.568394,0.291792 -0.8943,2.327767 -1.7886,4.655533 -2.6829,6.9833 -0.479,0.09063 -0.958,0.181267 -1.437,0.2719 -0.06133,0.637733 -0.122667,1.275467 -0.184,1.9132 0.204433,0.2367 0.408867,0.4734 0.6133,0.7101 0.3061,-0.143033 0.6122,-0.286067 0.9183,-0.4291 0.802633,0.417233 1.605267,0.834467 2.4079,1.2517 0.563257,-0.37604 1.100014,-0.806238 1.6797,-1.1487 1.778333,0.02617 3.556667,0.05233 5.335,0.0785 1.213733,-0.645633 2.427467,-1.291267 3.6412,-1.9369 0.675,-1.999 1.35,-3.998 2.025,-5.997 -0.338067,-1.222233 -0.676133,-2.444467 -1.0142,-3.6667 z"
     id="polygon1593" />
  <path
     id="polygon1595"
     style="fill:#87de5d;stroke-width:0.01"
     d="m 39.109116,38.638489 c 0.4751,0.0971 0.9502,0.1942 1.4253,0.2913 -0.01557,0.531933 -0.03113,1.063867 -0.0467,1.5958 -0.652566,-0.145079 -1.330445,-0.335733 -1.967,-0.4521 -0.107939,0.780565 -0.179607,1.572854 -0.310014,2.346157 -0.134095,0.245581 -0.268191,0.491162 -0.402286,0.736743 0.259683,0.08918 -0.186793,0.33597 -0.244478,0.495984 -0.361684,0.458643 -0.769252,0.895659 -1.102676,1.367623 -0.07364,0.451482 -0.204604,0.908079 -0.243104,1.356427 0.134753,0.347455 0.269505,0.694911 0.404258,1.042366 -0.564133,0.0619 -1.128267,0.1238 -1.6924,0.1857 -0.07597,0.2552 -0.151933,0.5104 -0.2279,0.7656 0.425833,0.264533 0.851667,0.529067 1.2775,0.7936 0.01933,0.367233 0.03867,0.734467 0.058,1.1017 1.738067,0.4893 3.476133,0.9786 5.2142,1.4679 0.4568,-0.08637 0.9136,-0.172733 1.3704,-0.2591 0.8704,-2.265633 1.7408,-4.531267 2.6112,-6.7969 -0.7152,-0.287067 -1.4304,-0.574133 -2.1456,-0.8612 -0.01221,-0.277344 -0.131071,-0.569235 -0.07573,-0.837365 0.437942,-1.012545 0.875884,-2.02509 1.313826,-3.037635 0.232767,0.0092 0.465533,0.0184 0.6983,0.0276 0.01853,-0.4636 0.03707,-0.9272 0.0556,-1.3908 -0.827733,-0.384067 -1.655467,-0.768133 -2.4832,-1.1522 0.125833,-0.5033 0.251667,-1.0066 0.3775,-1.5099 -0.645,0.0651 -1.29,0.1302 -1.935,0.1953 -0.178621,0.225218 -0.427712,0.417502 -0.416229,0.731565 -0.05582,0.314545 -0.111647,0.62909 -0.167471,0.943635 -0.448767,0.284067 -0.897533,0.568133 -1.3463,0.8522 z" />
  <path
     style="fill:#87de5d"
     d="m 4918.08,5107.08 -204.66,-204.66 -158.89,-20.91 -57.4,175.17 -257.79,-49.29 -16.78,-16.65 -71.49,41.15 25.2,834.27 39.74,17.25 206.84,-126.92 49.92,-472.16 235.75,17.14 96.99,239.55 436.62,80.78 82.46,-56.32 99.09,46.92 41.56,-76.11 27.75,-226.71 -272.51,-54.51 -9.6,-38.41 -151.42,-71.28 5.01,-10.64 -89.29,134.87 -110.39,-43.34 -31.73,-38.06 z"
     transform="matrix(0.01,0,0,0.01,-16.641984,-13.068811)"
     id="polygon1597" />
  <path
     style="fill:#87de5d"
     d="m 5041.44,4520.54 -79.91,-86.05 -346.71,-155.82 -385.47,-4.68 -22.69,455.73 -76.62,22.87 -15.53,119.24 53.5,53.05 50.3,22.16 29.83,37.97 233.01,44.56 57.02,-174 182.35,23.99 6.83,3.33 224.56,224.56 -86.6,82.64 15.58,18.68 85,32.09 86.21,-130.23 38.58,-209.18 128.53,-17.53 1.87,-367.65 -43.47,-25.76 z"
     transform="matrix(0.01,0,0,0.01,-16.641984,-13.068811)"
     id="polygon1599" />
  <path
     id="polygon1601"
     style="fill:#87de5d;stroke-width:0.01"
     d="m 27.073816,57.036189 c 0.152308,-0.213933 0.267675,-0.542715 0.562606,-0.313247 0.32334,0.08625 0.636809,0.286081 0.966318,0.301337 0.340792,-0.0584 0.681584,-0.116793 1.022376,-0.17519 0.0065,-1.075433 0.01307,-2.150867 0.0196,-3.2263 0.351067,-0.04387 0.702133,-0.08773 1.0532,-0.1316 0.193967,-0.615433 0.387933,-1.230867 0.5819,-1.8463 0.3123,0.09376 0.686456,0.111221 0.95983,0.252994 0.290557,0.629469 0.581113,1.258937 0.87167,1.888406 0.4501,0.1265 0.9002,0.253 1.3503,0.3795 0.442309,-1.275736 0.928277,-2.545112 1.343394,-3.824809 -0.01823,-0.347163 -0.03646,-0.694327 -0.05469,-1.041491 -0.4421,-0.274667 -0.8842,-0.549333 -1.3263,-0.824 0.108067,-0.3629 0.216133,-0.7258 0.3242,-1.0887 0.514333,-0.05643 1.028667,-0.112867 1.543,-0.1693 -0.08814,-0.32464 -0.296507,-0.640285 -0.308445,-0.970627 0.109937,-0.47137 0.170574,-0.966269 0.311086,-1.423046 0.419286,-0.509176 0.838573,-1.018351 1.257859,-1.527527 -0.308833,-0.1463 -0.617667,-0.2926 -0.9265,-0.4389 -0.284278,0.168091 -0.53375,0.417725 -0.8407,0.5327 -1.514033,-0.280167 -3.028067,-0.560333 -4.5421,-0.8405 -0.321067,-0.792833 -0.642133,-1.585667 -0.9632,-2.3785 -0.6609,-0.0481 -1.3218,-0.0962 -1.9827,-0.1443 -0.162433,1.536567 -0.324867,3.073133 -0.4873,4.6097 -0.757267,0.464667 -1.514533,0.929333 -2.2718,1.394 -0.224693,-0.07823 -0.08694,0.448427 -0.158567,0.625648 -0.06548,0.804984 -0.130955,1.609968 -0.196433,2.414952 0.4392,0.419533 0.8784,0.839067 1.3176,1.2586 -0.0033,0.255264 -0.06419,0.538458 0.231315,0.648717 0.181874,0.173834 0.514293,0.275687 0.416868,0.583065 -0.01359,1.176306 -0.02719,2.352612 -0.04078,3.528918 -0.2871,0.550267 -0.5742,1.100533 -0.8613,1.6508 0.2759,0.09833 0.5518,0.196667 0.8277,0.295 z" />
  <path
     style="fill:#87de5d"
     d="m 3469.76,4998.47 104.01,-118.07 77.13,-15.63 444.14,83.2 42.66,-19.91 -48.08,-47.69 19.02,-146.05 75.27,-22.48 21.81,-438.14 -186.06,-2.25 2.01,-13.91 -345.64,-67.55 -170.86,124.44 34.9,270.68 -1.39,7.26 -191.35,341.28 -17.62,9.94 z"
     transform="matrix(0.01,0,0,0.01,-16.641984,-13.068811)"
     id="polygon1603" />
  <path
     style="fill:#87de5d"
     d="m 3936.58,5933.83 -82.98,-1007.06 -204.96,-38.4 -59.81,10.71 -112.26,127.44 -176.93,-69.34 -153.2,200.49 94.66,486.53 -2.09,0.4 48.51,225.48 537.6,77.25 79.93,-50.49 z"
     transform="matrix(0.01,0,0,0.01,-16.641984,-13.068811)"
     id="polygon1605" />
  <path
     style="fill:#87de5d"
     d="m 3032.56,5672.2 119.16,-71.5 60.1,16.7 -90.59,-465.63 163.01,-213.32 4.3,-11 9.39,3.67 30.77,-12.59 187.48,-334.36 -34.36,-266.5 -159.4,-84.59 -83.96,279.9 -139.47,-121.15 -200.95,278.42 -143.32,104.59 -260.75,608.1 -31.36,113.69 29.82,78.94 z"
     transform="matrix(0.01,0,0,0.01,-16.641984,-13.068811)"
     id="polygon1607" />
  <path
     style="fill:#87de5d"
     d="m 3351.57,7825.93 70.86,-287.47 337.94,-65.52 53.69,149.88 -96.41,73.07 -16.95,203.34 347.06,-38.48 273.66,62.64 32.1,-32.9 32.48,-251.03 -158.11,-234.18 95.08,-125.42 -3.26,-39.1 -156.1,-184 -196.91,225.05 -110.46,-30.23 17.7,-171.31 135.29,-307.6 -4.28,-8.92 -65.06,-789.61 -39.55,-46.41 -74.27,43.6 -533.25,-76.62 88.96,420.39 -133.25,450.69 113.71,482.3 -0.7,7.45 -234.74,533.13 -94.3,36.28 164.65,284.38 273.46,108.69 53.26,-276.93 -150.26,-46.61 z"
     transform="matrix(0.01,0,0,0.01,-16.641984,-13.068811)"
     id="polygon1609" />
  <path
     style="stroke-width:0.01"
     d="m 22.986716,46.579789 0.6541,7.9386 0.1082,0.0476 -0.0293,0.0665 1.4892,2.1547 0.2069,-0.3419 0.6061,0.216 0.8633,-1.6547 0.0291,-3.5829 -0.651,-0.513 v -0.4804 l -1.3258,-1.2665 0.2666,-3.278 -0.3147,-0.1365 c -0.0893,-2.8775 -0.1763,-5.7554 -0.2607,-8.6329 l 0.8078,-0.4651 -0.062,-0.0789 -0.4562,-0.1858 -0.6164,0.2634 -2.1668,-0.406 0.8515,10.334 z"
     id="path1611" />
  <path
     style="fill:#87de5d"
     d="m 2358.32,5980.31 141.16,-55.14 99.32,8.63 43.08,188.04 308.2,-18.57 71.32,-409.12 -546.32,-97.73 -0.35,-0.92 -75.15,-12.01 -498.99,-145.62 -245.84,239.11 17.88,139.52 121.66,23.55 55.66,266.35 147.95,72.17 159.6,-206.31 z"
     transform="matrix(0.01,0,0,0.01,-16.641984,-13.068811)"
     id="polygon1613" />
  <path
     style="fill:#87de5d"
     d="m 2139.68,5368.81 16.22,-87.57 131.87,36.14 61.24,-100.06 -18.62,-38.78 -125.64,-37.27 320.65,-563.42 -35.54,-62.61 -135.5,-30.29 -145.76,111.83 4.32,9.51 -145.45,133.33 -116.07,605.66 162.32,40.59 z"
     transform="matrix(0.01,0,0,0.01,-16.641984,-13.068811)"
     id="polygon1615" />
  <path
     style="fill:#87de5d"
     d="m 2505.23,4494.51 47.33,83.36 -312.59,549.22 107.14,31.77 28.73,59.87 -64.36,105.16 162.97,44.67 259.81,-605.93 148.35,-110.3 198.49,-276.03 -122.69,-106.58 -236.06,28.62 -348.99,-94.48 -120.86,176.78 119.18,84.02 z"
     transform="matrix(0.01,0,0,0.01,-16.641984,-13.068811)"
     id="polygon1617" />
  <path
     style="stroke-width:0.01"
     d="m 8.030616,40.841589 -2.9283,-0.8028 -0.1338,0.7222 -0.4309,0.2831 -1.7102,-0.4276 c -0.0672,0.3506 -0.0175,0.2597 -0.2691,0.5045 l 4.854,1.4165 0.597,0.0946 -0.2629,-0.7601 z"
     id="path1619" />
  <path
     style="stroke-width:0.01"
     d="m 6.991416,28.697889 3.6286,0.9823 2.355,-0.2944 0.6705,-0.9057 -0.1812,-0.4943 -2.9243,-1.8033 -0.2513,-0.5856 0.4548,-2.3901 -0.2541,-0.3896 -3.9858,-2.2887 -0.7438,1.4545 2.0061,2.5569 c -0.4375,1.1979 -0.8722,2.3972 -1.3074,3.5959 l -2.5374,0.5154 -1.3656,2.3989 2.4363,0.937 0.3519,0.6912 1.3801,-1.0589 -1.1672,-0.8228 z"
     id="path1621" />
  <path
     style="stroke-width:0.01"
     d="m 22.914016,8.384789 5.2133,1.8949 0.0776,0.6265 -1.1295,2.0977 -3.3808,0.8427 -0.5931,2.9654 0.0057,0.001 -0.0302,0.1167 -0.522,2.0131 3.1252,0.5178 1.1883,-2.7719 1.0123,-0.3306 c 0.1674,-0.0773 3.3015,-1.5299 3.553203,-1.9075 0.217,-0.3255 -0.0152,-0.8419 -0.0585,-0.9318 l -2.102003,-2.2622 c 0.1912,-0.8931 0.3846,-1.786 0.5772,-2.6789 l 1.2624,-0.6478 6.042603,-1.3061 -0.0516,-0.1732 h 1.8281 l 0.2469,-2.256 -3.3269,0.7131 -9.409403,-2.4307 -3.0364,2.5751 z"
     id="path1623" />
  <path
     style="stroke-width:0.01"
     d="m 41.121619,51.942189 -5.1068,-1.4378 -1.4046,3.9485 -1.6679,-0.4687 -0.8862,-1.9202 -0.6163,-0.1404 -0.562203,1.7835 -0.9984,0.1249 -0.018,2.9765 0.4419,-0.0756 0.2882,0.5979 1.113703,0.253 1.7344,0.7011 0.6899,-2.2997 1.1244,-0.4049 c 0.01,0.0129 2.2689,3.0176 2.4546,2.8849 0.2578,-0.1841 1.3472,-0.5482 1.5978,-0.6306 0.5631,-1.3514 0.162,-0.6289 1.1094,-1.6453 l 1.2295,-1.4158 -0.7159,-0.8289 z"
     id="path1625" />
  <path
     style="fill:#87de5d"
     d="m 4179.98,7039.55 160.23,188.84 4.36,62.1 -87.62,115.58 151.13,223.81 1.88,8.09 -33.57,259.45 -47.33,51.95 -284.6,-65.13 -496.37,56.01 -55.12,286.65 311.83,123.94 303.69,-101.23 8.28,0.33 770.58,326.32 599.38,-54.5 105.43,-143.09 23.17,-220.06 -3.81,11.21 -374.58,-128.95 -262.67,-286.71 23.68,-98.84 -3.56,-46.31 -214.04,-298.11 -2.22,-7.67 15.08,-223.29 -80.5,-18.17 -123.23,159.03 -203.95,-84.96 -13.75,-100.19 -155.82,-55.53 -23.88,39.44 0.19,2.44 -1.75,0.14 z"
     transform="matrix(0.01,0,0,0.01,-16.641984,-13.068811)"
     id="polygon1627" />
  <path
     style="fill:#87de5d"
     d="m 3441.75,7558.79 -66.41,269.39 16.59,47.27 138.59,42.98 146.21,-16.5 18.21,-218.48 91,-68.97 -41,-114.47 z"
     transform="matrix(0.01,0,0,0.01,-16.641984,-13.068811)"
     id="polygon1629" />
  <path
     style="fill:#87de5d"
     d="m 4025.02,6795.49 -128.72,292.62 -14.59,146.01 76.95,21.05 202.28,-231.17 0.59,0.52 5.32,-23.82 z"
     transform="matrix(0.01,0,0,0.01,-16.641984,-13.068811)"
     id="polygon1631" />
  <path
     style="fill:#87de5d"
     d="m 4511.14,7034.04 -101.96,-36.41 -15.69,22.66 13.57,98.93 174.84,72.82 116.22,-149.97 -17.17,-35.6 z"
     transform="matrix(0.01,0,0,0.01,-16.641984,-13.068811)"
     id="polygon1633" />
  <path
     style="fill:#87de5d"
     d="m 5250.65,5146.86 -14.8,72.19 3.93,15.75 256.09,51.22 0.3,-2.38 194.07,46.07 3.24,-110.7 -151.98,-30.33 z"
     transform="matrix(0.01,0,0,0.01,-16.641984,-13.068811)"
     id="polygon1635" />
</svg>
