<?xml version="1.0" encoding="UTF-8" standalone="no"?>
<svg
   xmlns:dc="http://purl.org/dc/elements/1.1/"
   xmlns:cc="http://creativecommons.org/ns#"
   xmlns:rdf="http://www.w3.org/1999/02/22-rdf-syntax-ns#"
   xmlns:svg="http://www.w3.org/2000/svg"
   xmlns="http://www.w3.org/2000/svg"
   xmlns:sodipodi="http://sodipodi.sourceforge.net/DTD/sodipodi-0.dtd"
   xmlns:inkscape="http://www.inkscape.org/namespaces/inkscape"
   xml:space="preserve"
   width="100mm"
   height="100mm"
   version="1.1"
   shape-rendering="geometricPrecision"
   text-rendering="geometricPrecision"
   image-rendering="optimizeQuality"
   fill-rule="evenodd"
   clip-rule="evenodd"
   viewBox="0 0 10000 10000"
   id="svg2267"
   sodipodi:docname="green_map (copy)_2.svg"
   inkscape:version="1.0.1 (3bc2e813f5, 2020-09-07)"><metadata
   id="metadata2273"><rdf:RDF><cc:Work
       rdf:about=""><dc:format>image/svg+xml</dc:format><dc:type
         rdf:resource="http://purl.org/dc/dcmitype/StillImage" /><dc:title></dc:title></cc:Work></rdf:RDF></metadata><defs
   id="defs2271" /><sodipodi:namedview
   pagecolor="#ffffff"
   bordercolor="#666666"
   borderopacity="1"
   objecttolerance="10"
   gridtolerance="10"
   guidetolerance="10"
   inkscape:pageopacity="0"
   inkscape:pageshadow="2"
   inkscape:window-width="1920"
   inkscape:window-height="995"
   id="namedview2269"
   showgrid="false"
   inkscape:zoom="1.4929676"
   inkscape:cx="164.82945"
   inkscape:cy="195.05459"
   inkscape:window-x="0"
   inkscape:window-y="0"
   inkscape:window-maximized="1"
   inkscape:current-layer="Layer_x0020_1" />
 <g
   id="Layer_x0020_1">
  <metadata
   id="CorelCorpID_0Corel-Layer" />
  <g
   id="g2363"><path
     id="polygon1567"
     style="fill:#87de5d"
     d="m 7014.43,1612.53 c 161.6167,108.5533 323.2333,217.1067 484.85,325.66 -10.0379,97.8869 -10.9138,276.3675 -158.086,201.985 -116.8752,-0.5442 -262.3527,-107.1775 -346.8245,12.4665 -163.2953,71.0171 107.4209,370.9657 33.3863,280.8604 120.6535,122.7437 364.1931,246.5486 267.8467,179.9155 94.3671,45.5528 227.4012,217.4983 249.3692,26.3971 68.3728,-162.3915 136.7455,-324.783 205.1183,-487.1745 201.5533,27.8012 103.8306,2.1738 133.5305,-154.4792 32.4232,-211.8036 64.8463,-423.6072 97.2695,-635.4108 -201.9867,-20.45 -403.9733,-40.9 -605.96,-61.35 -120.1667,103.71 -240.3333,207.42 -360.5,311.13 z" /></g>
  <g
   id="g2354"><path
     id="path1569"
     d="m 7473.78,1949.49 c -178.5937,-110.4703 -344.6231,-250.0062 -530.47,-343.21 -105.573,71.828 -195.0597,189.9815 -310.5662,233.5293 -147.4813,-12.3931 -294.9625,-24.7862 -442.4438,-37.1793 -185.8729,163.8416 115.3965,169.3539 -4.8088,319.1006 -58.8017,220.182 -159.3008,372.7053 -394.9137,293.2006 -99.9379,72.5599 -171.0174,425.4235 -136.1909,311.1424 -119.016,180.6826 143.1928,307.1654 83.7051,272.9227 140.4322,110.6569 226.9753,-284.4222 176.2274,-200.2942 -17.83,-128.0409 221.1111,84.5398 225.2366,-46.7074 -7.592,159.8788 367.2495,136.494 231.136,158.4153 165.8142,-75.7957 57.5833,271.3951 201.1333,152.0228 44.9346,-113.7695 49.9197,-256.9792 79.515,-382.0528 114.4729,3.4748 250.9536,74.3753 323.434,-50.8031 160.2354,-72.9635 -102.4107,-357.1769 -27.5554,-263.5546 -176.0655,-147.7845 114.6289,-321.5702 59.2512,-254.9013 86.9326,-95.839 452.021,3.4404 339.9417,6.0147 143.0672,62.0759 102.0141,-78.5325 127.3685,-167.6457 z" /></g>
  <g
   id="g2345"><path
     id="path1571"
     d="m 6604.46,3072.13 c -170.3705,121.9602 -250.4701,-196.728 -185.1442,-138.04 -101.1698,-22.8292 -291.4921,67.1262 -283.2196,-94.156 -62.7975,-30.5729 -71.8699,-533.6942 -187.4142,-68.7416 -65.163,162.1716 -113.889,327.0699 -92.572,503.5877 0,136.7599 0,273.5199 0,410.2799 -123.9598,9.1724 -225.1598,58.6006 -211.2069,198.6075 -27.2452,133.5412 46.7072,212.7766 181.7558,172.5527 93.2547,-15.6231 334.1613,204.3235 115.549,213.7105 -162.8951,116.0451 243.2994,126.602 136.3727,126.1412 124.4499,48.2659 202.5464,-136.7463 317.3207,-21.9605 154.4323,230.7571 286.6813,-492.9345 137.5788,-129.1074 36.2219,-123.7019 -343.0086,-202.0496 -265.6595,-146.495 -218.0239,-48.2307 -76.1186,-280.8085 -71.5305,-251.9663 40.4909,-250.2973 307.2304,-152.0135 252.4529,-139.7596 200.1359,27.8113 407.8946,-58.4071 349.567,-47.9331 -38.7358,-290.3676 192.241,-142.7672 329.362,-75.1684 85.0574,-3.4083 159.932,-391.0199 115.1303,-303.3512 34.9825,-120.5716 226.1055,-149.7318 207.8127,-296.8083 19.0916,-117.5964 76.0758,-252.0178 -78.9966,-292.2823 -97.0331,-29.4441 -381.4735,-39.8596 -294.2196,-124.8425 -91.8395,70.9681 -161.092,211.1392 -294.9552,153.3523 -192.4178,-18.6248 -175.4333,252.0094 -156.6313,234.3181 -7.1174,39.3541 -14.2349,78.7082 -21.3523,118.0623 z" /></g>
  <g
   id="g2342"><path
     id="path1573"
     d="m 6833.29,3507.77 c 62.3845,197.335 -381.1121,272.845 -249.91,235.13 -100.5733,15.0992 -384.5661,88.7865 -325.3628,7.4342 -11.1587,96.1048 81.224,365.0239 -39.511,308.2431 117.9746,36.4176 235.9492,72.8351 353.9238,109.2527 -70.7601,134.3294 63.3387,159.5027 22.36,294.65 148.649,22.9656 145.8501,-344.3579 109.12,-255.93 72.6863,-118.0339 166.6027,-169.658 297.9159,-104.302 93.8296,-8.9357 344.2939,-96.8243 307.4132,13.8298 53.7603,-248.3626 107.5206,-496.7252 161.2809,-745.0878 79.2899,148.7998 115.3673,-228.4811 160.99,-99.1492 28.8001,-90.8272 254.4926,38.1136 237.6285,-144.4091 55.6738,-148.9872 111.3477,-297.9745 167.0215,-446.9617 -112.9897,-71.9746 -74.2714,-423.7623 -88.1512,-306.8643 35.8952,-149.22 -2.5266,-230.0155 -165.4949,-196.1396 -73.9911,80.2052 -103.0709,230.8717 -159.7261,338.2752 -82.2998,175.4241 -144.9575,336.8403 -158.3333,531.3536 -22.8472,127.7727 -220.8808,154.5492 -214.7507,301.8564 -49.0469,71.0887 -236.3265,200.3351 -125.1751,259.2457 -95.8271,-25.008 -193.1473,-128.316 -291.2387,-100.427 z" /></g>
  <g
   id="g2339"><path
     id="polygon1575"
     style="fill:#87de5d"
     d="m 7325.69,4546.71 c -92.6389,17.6405 -234.1695,210.3239 -281.7429,66.6205 -76.2144,-123.1572 56.1504,-244.8807 137.3989,-328.4899 182.6646,-160.0975 -205.3965,-175.9442 -136.7889,-148.9021 -122.7364,-39.7367 -242.2199,-69.2977 -307.8744,69.5239 -61.7254,80.0764 40.3612,294.516 -111.6136,277.2598 -86.2816,-19.4426 -41.617,-184.7658 -145.0053,-9.2891 -52.386,105.6544 -204.2791,189.5839 -143.9246,319.8523 18.9411,146.0108 79.0899,296.4195 73.0875,439.8213 -10.7697,133.7854 -321.0441,50.0102 -244.332,113.5746 -93.0076,-31.5727 -180.0678,264.9163 -160.4726,227.2205 -74.9881,127.9586 297.7744,203.1473 215.9655,177.2676 136.1213,-49.2606 272.687,-6.167 409.0124,17.5506 47.6145,-102.4058 198.915,-397.9264 129.2937,-325.9583 162.2159,-4.6257 326.0204,-16.7489 471.8222,68.5875 150.3515,124.3126 265.66,-210.3698 196.3318,-145.7693 119.2495,-14.223 288.0984,9.9333 207.32,-159.0682 -57.2834,-124.8597 174.1201,-402.5139 107.2631,-308.0565 134.0545,-135.29 -258.8614,-113.9829 -126.5025,-135.3452 -114.5602,-6.7278 -15.8203,-245.679 -205.7468,-199.1231 -27.8305,-5.759 -55.661,-11.5179 -83.4915,-17.2769 z" /></g>
  <path
   id="polygon1577"
   style="fill:#87de5d"
   d="m 6394.82,5208.94 c -34.27,-172.01 -68.54,-344.02 -102.81,-516.03 32.7209,-86.0816 86.7695,-332.4067 150.4296,-272.3671 -111.493,-100.1392 -414.7922,30.9933 -305.5122,3.7765 -175.3845,5.5826 -337.7876,-52.8053 -499.9474,-112.0494 -119.548,49.2961 156.26,113.334 -3.0109,216.1429 -66.4903,65.0542 -281.3468,-137.6876 -213.344,50.1437 28.865,118.4778 115.4599,473.9112 86.5949,355.4334 -120.3944,90.2391 -242.6372,-73.23 -372.1836,-14.776 -37.6753,39.3307 128.7639,246.4726 6.0976,238.5083 99.2334,55.1942 129.8318,-89.5449 282.4477,-9.868 103.1914,42.6919 309.9432,-208.4141 271.444,-114.7868 -12.1929,-131.7828 324.1231,-147.3355 220.0055,-153.6309 179.7333,-59.371 -67.7743,204.9844 124.2905,197.534 243.6573,45.7151 160.4126,362.3286 149.3383,266.0694 140.0125,25.0416 155.8447,-7.4023 206.16,-134.1 z" />
  <g
   id="g2348"><path
     id="path1579"
     d="m 5633.24,4500.33 c 94.1276,-99.6625 -193.3031,-166.0723 6.89,-211.91 119.1693,53.7059 235.1483,95.887 298.7807,-51.0333 49.5616,-134.2658 -316.8185,-115.4928 -191.8141,-155.0836 -174.3194,38.9999 -60.6302,-196.1515 -188.0521,-127.4202 -234.3977,54.4902 -188.1149,-320.3553 -395.9231,-239.5414 -133.359,5.7878 -253.9216,22.8014 -207.8494,185.9986 -29.4205,190.9849 -86.5197,322.3967 -99.5054,272.8215 166.1219,51.1914 -117.8397,215.8193 100.872,232.2639 81.1583,106.7811 523.8084,205.5945 278.9663,90.9946 32.5826,172.8964 -77.9101,443.0009 186.2551,446.5399 123.1806,-37.8177 -3.6394,-402.4773 -11.0739,-306.081 -78.0193,-134.9361 11.8784,-224.6789 141.4311,-130.4329 34.8163,16.6692 51.3866,22.7215 81.0228,-7.1161 z" /></g>
  <g
   id="g2351"><path
     id="polygon1581"
     style="fill:#87de5d"
     d="m 5406.36,3902.03 c 127.9866,42.5447 237.7777,56.0487 233.1417,-113.0768 -23.1618,-155.6404 243.4395,-43.9878 192.9383,-199.7699 0,-175.7378 0,-351.4755 0,-527.2133 -120.7199,-19.4471 -307.7876,-263.001 -257.2642,-184.4082 -104.7109,4.0385 -32.9402,229.3586 -193.0729,91.9858 -142.1329,-102.1763 -262.6905,80.5653 -383.142,137.8908 -140.582,83.9075 261.5963,108.1106 201.4991,83.9916 3.5916,148.6469 208.841,254.4872 205.15,187.0129 -22.2234,112.5601 -63.7518,448.7218 -91.4672,339.1779 30.7391,61.4698 61.4781,122.9395 92.2172,184.4092 z" /></g>
  <g
   id="g2357"><path
     id="path1583"
     d="m 5312.83,2910.74 c 117.1928,77.5818 200.2889,93.4072 192.8841,-44.0222 161.9468,-47.2189 193.1234,-335.5677 165.9018,-274.694 33.5571,-113.3731 43.5305,-261.4965 199.2957,-194.7958 137.4607,51.1632 266.1894,-278.7307 232.6264,-153.6014 31.7544,-100.8591 173.4971,-239.3456 -3.218,-268.8866 -95.8076,-22.3697 -286.3198,-6.084 -179.5662,-151.6753 -18.9862,-141.3626 -171.6197,-62.0744 -155.2138,38.8053 -108.5533,103.0567 -217.1067,206.1133 -325.66,309.17 -13.4009,-150.7657 -78.9798,-213.3236 -223.606,-142.2507 -181.9541,50.9277 -381.3914,53.1955 -546.244,151.7207 -12.7122,115.9194 -104.8638,253.6742 26.2565,330.0586 114.7448,87.1114 76.3534,489.044 123.5745,347.7435 -44.1022,110.3462 231.6147,271.6675 120.6068,260.3245 123.7032,-63.9187 228.663,-200.8569 372.3622,-207.8966 z" /></g>
  <g
   id="g2321"><path
     id="path1585"
     d="m 5653.08,7011.94 c -181.0756,348.9508 -545.6384,-114.0027 -490.0601,-112.4143 -131.6474,6.4311 -238.4143,290.8558 -157.6336,260.2011 -123.893,-67.7681 -234.1163,-106.3218 -199.2747,79.965 -12.6492,124.5237 125.0799,206.1879 176.4957,312.4524 91.3011,85.8036 -39.1764,218.0917 95.9564,280.9606 92.975,100.9119 172.578,222.3022 320.2659,239.4235 121.9027,44.3098 242.7602,98.7787 373.6392,55.8475 247.3171,-30.5053 494.6341,-61.0105 741.9512,-91.5158 74.3224,-106.3891 -119.7616,-377.8721 -34.92,-288.7 -4.52,-166.0867 -9.04,-332.1733 -13.56,-498.26 -95.2625,-49.2824 -287.796,-14.8762 -263.7314,-166.8238 -4.9518,-128.0529 -16.6621,-251.4035 -163.5385,-280.7115 C 5861.947,6645.415 5776.1658,6927.736 5653.08,7011.94 Z" /></g>
  <path
   id="path1587"
   d="m 4249.81,3269.16 c -38.3505,156.3944 -126.3597,309.2177 -133.6195,467.848 18.224,125.081 73.0347,254.7163 -12.9898,366.8205 -115.859,148.0645 274.5766,130.0395 137.2126,147.0322 190.3689,9.0133 391.0606,-28.5491 558.3465,84.6143 142.3828,-44.1987 65.8582,-283.7792 33.5347,-217.8618 60.1887,-104.8712 132.4042,-148.5124 101.0817,-298.0534 -38.18,-157.1308 365.6127,-173.8361 269.7953,-134.2493 145.296,-46.2827 208.3663,-385.7889 169.2645,-284.3153 2.0821,-64.7193 -182.223,-48.8936 -186.356,-187.6652 -124.1811,-18.6339 -263.6896,-5.788 -341.9812,-124.4715 -71.2842,-90.2916 -103.0424,-234.9158 -79.9475,-277.821 -146.1447,128.48 -418.3886,105.1664 -456.6294,326.1741 -19.424,43.3971 -37.3543,90.9027 -57.7119,131.9484 z" />
  <g
   id="g2276"><path
     id="path1589"
     d="m 3043.31,3129.59 c 26.9808,-136.66 -42.4408,-397.7154 190.0559,-269.2137 219.3144,-36.9186 673.1856,268.2706 740.4302,9.8242 10.7383,-128.598 36.1038,-243.239 189.8296,-235.402 229.9062,-8.9741 298.6798,-220.9212 265.6662,-184.2573 106.6608,-135.019 -289.8631,-233.0362 -209.9006,-184.1804 -108.7156,-15.9573 -431.8198,-15.0861 -327.7707,-73.8839 -99.7107,121.4799 -389.3937,-15.8765 -300.6733,-24.3737 -103.8737,89.4614 -100.3045,222.0621 -114.8073,347.4068 -95.1141,73.0231 -433.8907,25.7661 -315.8963,69.6189 -254.7546,-35.9263 -509.5091,-71.8526 -764.2637,-107.7789 -69.2482,85.5104 -250.4824,159.2807 -112.5837,266.5074 36.3829,122.9008 16.7121,264.5649 31.8937,394.5626 179.3167,62.9367 358.6333,125.8733 537.95,188.81 63.3567,-65.88 126.7133,-131.76 190.07,-197.64 z" /></g>
  <g
   id="g2279"><path
     id="polygon1591"
     style="fill:#87de5d"
     d="m 3066.55,3135.65 c -79.7036,58.959 -342.9178,194.6656 -243.3139,206.0606 -168.9054,-59.2835 -337.8107,-118.5671 -506.7161,-177.8506 -37.2671,236.3697 217.9442,312.7355 174.4089,270.5056 83.7635,71.9624 252.3761,90.4805 268.0837,211.9275 -4.8916,101.5734 -102.4367,256.8948 40.6913,301.3836 79.2747,71.4756 224.9244,350.908 244.0898,226.5484 -136.0025,98.427 175.1254,312.9261 112.8608,236.441 108.9009,163.9619 180.9792,-354.8895 147.5248,-199.0172 86.0247,11.535 209.8088,144.8649 296.2044,4.2829 95.3518,-102.2376 236.8369,3.5612 355.0878,4.586 127.3267,9.2985 180.3679,-223.0399 161.5905,-201.7133 45.6632,-138.9404 -81.5555,-296.6606 5.1537,-434.85 7.4139,-96.8325 -12.582,-361.6902 62.5266,-314.952 -80.6237,-43.2079 -244.8541,-223.3084 -279.7816,-104.977 86.3943,-151.3251 -5.7704,-187.371 -150.0536,-189.7688 -221.9024,-38.2223 -443.8047,-76.4445 -665.7071,-114.6667 -7.55,92.02 -15.1,184.04 -22.65,276.06 z" /></g>
  <g
   id="g2336"><path
     id="polygon1593"
     style="fill:#87de5d"
     d="m 6211.96,5776.73 c -89.43,232.7767 -178.86,465.5533 -268.29,698.33 -154.7258,-23.9301 -119.65,347.9835 -149.4494,233.1574 70.5863,88.0006 199.3222,-24.8334 295.0622,93.7939 130.9487,81.8573 382.5906,-99.6942 273.5593,-69.7566 176.2782,-3.8194 358.7492,17.9909 531.235,-1.524 113.6027,-71.1589 257.9791,-116.1976 353.2247,-202.9377 59.8214,-200.1143 150.2889,-399.3733 191.1486,-600.0168 -42.6656,-114.1972 -50.0443,-260.3638 -114.3158,-354.9866 -153.3503,-61.3636 -304.3525,-135.5657 -474.142,-107.0425 -172.9288,16.1117 -207.2282,307.622 -180.292,257.3597 -19.7464,141.6946 -394.2106,33.7756 -296.6506,23.6532 -53.6967,9.99 -107.3933,19.98 -161.09,29.97 z" /></g>
  <g
   id="g2315"><path
     id="polygon1595"
     style="fill:#87de5d"
     d="m 5926.42,6454.3 c 87.04,-226.5633 174.08,-453.1267 261.12,-679.69 -87.4187,-46.2008 -281.259,-59.7603 -209.7837,-198.4076 65.0471,-81.3877 298.2631,-265.0273 177.0509,-272.9193 105.6864,-176.481 -266.9363,-286.5162 -158.1906,-220.0742 -167.6807,-5.2439 70.1093,-253.4115 -131.2883,-175.0312 -167.0413,-42.8974 -302.5707,256.4001 -204.6481,208.3869 -210.6009,94.9277 140.6743,21.4226 54.1291,180.0248 38.2446,158.4549 -201.5051,175.6603 -203.3846,56.0445 -10.0805,115.9909 -26.6623,243.3777 -91.5028,320.2985 -102.3637,94.8248 -179.2529,245.031 -93.4819,375.8276 -115.1448,-28.3305 -283.7021,82.0206 -109.8289,146.1944 57.1238,97.1726 79.532,188.7355 237.6489,190.9127 157.9356,31.6436 310.3311,128.4059 472.16,68.4329 z" /></g>
  <path
   id="polygon1597"
   style="fill:#87de5d"
   d="m 5242.13,5621.8 c 79.9052,-116.0908 228.1576,68.1485 227.8129,-123.9316 46.8896,-143.6315 15.1506,-230.4394 -147.7569,-222.4542 -102.0526,-10.2567 -338.9956,-180.1402 -257.716,-140.6742 -38.3055,124.7275 -150.4331,169.7926 -231.41,53.47 165.977,-79.5335 -145.1596,-327.6037 -79.2056,-245.3556 -83.8598,-85.2029 -250.8567,-88.8059 -241.5113,67.3991 -34.8641,90.7738 -367.0169,-39.5764 -289.7831,-19.5135 -130.9736,107.5976 -72.5828,346.8653 -63.3091,311.9849 5.673,187.8117 11.3461,375.6234 17.0191,563.4351 150.577,51.7859 279.9445,-261.1218 252.6847,-167.4107 14.6051,-138.1398 29.2102,-276.2795 43.8153,-414.4193 109.2878,19.3732 270.2151,-32.1781 279.3306,124.7771 11.2154,150.4526 382.8088,187.7388 262.7526,170.6439 75.7589,14.0164 151.5179,28.0327 227.2768,42.049 z" />
  <g
   id="g2303"><path
     id="polygon1599"
     style="fill:#87de5d"
     d="m 4538.17,4855.57 c 120.7491,1.5978 367.343,244.2479 298.6637,136.8037 168.7606,73.2075 92.1638,285.4914 62.1631,223.2321 112.3517,67.2185 184.7829,-307.2398 174.1654,-219.1748 -14.4455,-156.5437 220.067,-59.2815 146.7369,-247.9884 -6.9694,-96.6784 49.2204,-314.0085 -117.8892,-241.2603 -108.6933,32.4378 -402.504,-139.0437 -281.7062,-136.1629 -124.8479,-68.5133 -254.9707,-113.1309 -399.0112,-94.699 -148.9216,-30.0816 -233.0971,8.7192 -200.6043,171.6417 -32.2663,99.0542 -228.9818,317.8292 -88.2108,303.9004 -65.2443,119.1084 219.2515,286.5873 134.6723,236.7828 116.5248,23.5414 257.1797,88.0236 256.1894,-87.818 4.9437,-15.0858 9.8873,-30.1715 14.8309,-45.2573 z" /></g>
  <g
   id="g2312"><path
     id="polygon1601"
     style="fill:#87de5d"
     d="m 4788.44,5561.84 c -58.7138,-89.2675 -45.557,-277.2452 -192.8356,-244.8744 -162.938,-62.819 -159.3225,337.6322 -128.2046,242.8045 -3.1419,127.7053 -12.0573,251.7677 -154.2493,291.7378 -144.2127,33.7695 -140.0428,406.1404 -124.4396,285.3876 -31.277,121.8378 177.2237,374.4992 155.8962,273.5575 71.9775,107.4747 25.479,508.5056 31.1244,336.9831 40.7718,103.7477 -180.591,243.6382 -4.1515,263.0639 39.885,-92.0022 267.499,90.0277 255.4827,-76.7714 24.046,-99.7371 -66.7002,-301.4377 97.6314,-276.5671 33.3249,-80.6811 73.6654,-280.3564 177.9285,-129.1666 13.6959,99.7252 293.7693,63.7066 220.7102,158.9954 38.8051,-150.0283 140.8914,-290.8389 115.8972,-450.1603 -132.4371,-17.088 -181.515,-203.2694 -23.2551,-199.7136 149.2243,19.8771 186.7704,-339.7121 87.2381,-259.547 116.9251,-68.2986 128.1562,-237.3293 -24.4404,-152.2033 -102.992,43.2497 -452.4013,-39.2844 -340.6199,-35.8223 -49.9042,-9.2346 -99.8085,-18.4692 -149.7127,-27.7038 z" /></g>
  <g
   id="g2300"><path
     id="polygon1603"
     style="fill:#87de5d"
     d="m 4089.62,4880.37 c -35.1151,-154.7833 134.7414,-139.7304 100.0634,-284.5114 -18.7674,-97.0037 -108.3935,-356.6903 -22.6689,-322.6267 -193.9947,-2.9616 -381.1293,-57.6297 -335.2927,-52.8143 -123.3778,-59.3316 -403.4607,168.7266 -312.1383,83.5148 -40.0333,110.3644 77.165,268.0236 -28.23,372.8462 -36.3255,85.3378 -145.0021,329.8457 -143.6235,273.8727 131.6034,118.482 398.9339,-99.5475 282.9459,-81.783 159.978,3.158 324.3242,74.2137 481.9022,70.9164 58.4954,-11.4921 -12.994,-36.8753 -22.9581,-59.4147 z" /></g>
  <g
   id="g2297"><path
     id="polygon1605"
     style="fill:#87de5d"
     d="m 3936.58,5933.83 c -27.66,-335.6867 -55.32,-671.3733 -82.98,-1007.06 -111.5219,-13.5532 -263.3952,-91.2352 -328.7357,44.9253 -65.9046,141.2426 -233.4037,-116.8863 -283.9797,62.3768 -109.2506,83.4166 -19.9138,431.3953 -57.4819,313.5773 35.5469,176.4163 64.1155,347.74 104.1173,522.4306 183.6094,17.4102 375.0526,71.5138 553.963,66.9139 39.9099,-22.528 67.3774,-63.752 95.097,-3.1639 z" /></g>
  <g
   id="g2291"><path
     id="polygon1607"
     style="fill:#87de5d"
     d="m 3297.93,4931.12 c 101.147,-83.5377 141.1272,-236.245 218.25,-346.95 -33.6204,-108.3341 21.2197,-277.9129 -119.8401,-311.8624 -122.328,-135.0728 -187.6297,413.4404 -151.7707,220.306 -62.705,1.1594 -174.3871,-184.7736 -224.867,9.0711 -69.4886,109.7919 -150.8356,207.7876 -264.9822,273.1553 -94.5442,241.5871 -221.9189,471.6673 -292.11,721.79 73.7809,150.0747 364.5868,146.1278 296.5437,126.6572 126.4989,8.2086 267.6396,96.1071 372.9812,-10.8355 171.2334,82.913 -43.192,-488.7448 31.6355,-242.0252 -22.9325,-117.2441 -77.4104,-241.8801 39.7192,-326.304 32.052,-31.7428 61.5863,-99.0685 94.4404,-113.0025 z" /></g>
  <g
   id="g2327"><path
     id="polygon1609"
     style="fill:#87de5d"
     d="m 3826.07,5971.33 c -177.75,-25.54 -355.5,-51.08 -533.25,-76.62 19.5161,152.2475 90.2336,306.5167 77.9852,457.5099 -31.1403,150.6014 -115.4225,299.7163 -113.3926,451.2455 26.502,156.203 94.5403,315.2093 96.3282,469.7878 -75.6469,171.8056 -151.2939,343.6112 -226.9408,515.4168 -182.3287,16.5724 59.9573,344.9088 31.768,254.0219 51.6658,119.0823 209.5267,115.1494 312.042,175.3281 -10.5033,-97.7917 126.4554,-283.9773 -20.681,-299.8662 -156.3412,-10.1294 -32.5611,-373.7531 -52.0383,-280.1408 42.8073,-177.6305 323.4277,-168.5611 271.5439,-147.4424 116.2784,-78.0982 -65.1318,218.892 67.5025,190.7016 -40.0518,80.9759 -80.7039,283.7997 79.1807,205.1609 155.0357,-32.3724 307.7305,-23.9347 458.0371,26.1381 135.4048,28.8682 146.4092,-354.8085 111.6503,-271.6055 -28.7348,-94.1954 -45.5097,-372.7822 -122.8385,-281.9554 129.3456,-89.7895 -133.5375,-344.0564 -68.4639,-265.836 -74.9086,-71.5427 -303.6105,234.9309 -227.8028,188.6357 -201.5504,-40.4402 -54.6901,-312.0317 -61.5917,-272.4052 53.413,-124.3816 132.3437,-241.2515 88.7166,-380.6764 -25.8051,-221.5923 -22.4128,-455.3224 -66.4883,-669.3192 -27.8854,-65.8347 -59.7393,-0.5531 -101.2666,11.9208 z" /></g>
  <g
   id="g2309"><path
     id="path1611"
     d="m 3962.87,5964.86 c 21.8033,264.62 43.6067,529.24 65.41,793.86 53.592,38.4304 232.4865,128.1228 177.5,192.69 141.3018,119.644 176.9862,-471.3019 147.7259,-240.6377 47.1824,-189.9923 -122.4196,-369.6865 -62.9759,-312.8223 0.8044,-115.7773 -195.6108,-150.0695 -123.1666,-290.4329 19.3769,-454.4545 -33.934,-43.2319 -24.171,-549.4385 -49.799,-198.4372 -8.2792,-687.0977 12.8376,-612.5386 -75.2246,88.5392 -255.7406,181.6473 -273.5519,43.6064 26.7957,325.238 53.6042,650.4751 80.3919,975.7136 z" /></g>
  <g
   id="g2294"><path
     id="polygon1613"
     style="fill:#87de5d"
     d="m 2950.08,6103.27 c 23.7733,-136.3733 47.5467,-272.7467 71.32,-409.12 -367.6551,-60.7536 -732.5681,-126.1972 -1086.2998,-246.2089 -106.8439,5.8868 -362.85,282.9622 -270.3691,219.331 -12.7993,201.0707 134.3781,272.0629 141.4358,229.6127 22.3982,115.1594 21.6715,248.3212 165.5478,268.912 101.1562,14.0544 367.0636,-159.6683 243.8012,-191.2112 122.8927,39.1815 458.5984,-35.6867 341.8087,-44.3894 107.957,18.356 22.8997,269.2267 200.4702,184.6596 64.0951,-3.8619 128.1901,-7.7239 192.2852,-11.5858 z" /></g>
  <g
   id="g2282"><path
     id="polygon1615"
     style="fill:#87de5d"
     d="m 2287.77,5317.38 c 162.456,-127.3114 -53.614,-273.2943 -63.874,-209.7518 100.5013,-176.5927 201.0027,-353.1855 301.504,-529.7782 -75.4689,-206.4326 -404.7482,60.3108 -278.5284,-10.4327 -125.4671,54.0509 -250.409,447.3656 -193.9727,248.2358 -33.833,176.5423 -67.6659,353.0846 -101.4989,529.6269 149.0549,100.5967 341.1736,-54.5776 260.4977,-48.6934 25.2907,6.9311 50.5815,13.8623 75.8723,20.7934 z" /></g>
  <g
   id="g2285"><path
     id="polygon1617"
     style="fill:#87de5d"
     d="m 2347.11,5158.86 c 39.8741,115.3329 -94.4565,201.4996 113.6955,205.96 69.0041,-77.8983 103.0074,-228.4206 158.5594,-334.2311 63.0458,-133.274 90.3267,-294.7819 239.1477,-360.3422 87.1803,-85.2027 146.3167,-198.0066 222.5874,-293.9467 -78.7447,-113.2671 -437.974,-51.6185 -314.8248,-83.2855 -133.341,3.1928 -261.5863,-64.398 -392.9152,-89.1545 -68.5975,96.7161 -183.3183,201.7549 -10.131,254.8422 110.643,1.0727 250.5747,92.6478 141.4636,203.2708 -88.2409,155.039 -176.4817,310.078 -264.7226,465.117 35.7133,10.59 71.4267,21.18 107.14,31.77 z" /></g>
  <path
   id="path1619"
   d="m 2467.26,5391.04 c -93.6747,4.1705 -324.3518,96.9839 -303.4071,-23.189 -33.0341,94.6676 -336.5049,-59.8106 -188.0852,67.3944 163.5836,42.8837 323.0158,104.2848 489.3623,134.8446 -38.258,-62.5141 -18.9511,-114.4811 2.13,-179.05 z" />
  <g
   id="g2288"><path
     id="path1621"
     d="m 2363.34,4176.67 c 183.6361,43.7491 364.1716,131.7181 554.9069,74.2221 147.4218,-21.5857 -157.9266,-240.1545 -22.9332,-216.5431 -86.4531,-59.4256 -250.1218,-108.1917 -187.7721,-243.8311 51.66,-120.6929 26.3697,-234.0385 -111.8893,-269.3809 -95.2747,-27.8303 -367.7637,-66.376 -298.7162,-126.9435 -114.916,111.7897 151.6849,388.1152 86.6051,293.7094 95.4279,121.5611 -360.7134,462.7645 -187.2923,455.6725 -142.6391,-12.9144 -300.8966,320.6529 -245.2624,213.4425 -84.3128,114.0012 264.6589,246.0461 221.1745,165.8197 33.3628,117.0871 258.9212,-101.849 69.5062,-120.9249 -46.6895,-39.5423 105.2144,-170.8814 121.6728,-225.2427 z" /></g>
  <g
   id="g2360"><path
     id="path1623"
     d="m 3955.6,2145.36 c 173.7767,63.1633 347.5533,126.3267 521.33,189.49 11.6915,99.5739 -223.354,328.685 -142.7491,281.782 -158.9962,-12.7732 -389.6252,221.0028 -308.1125,112.8646 -30.5113,159.0434 -61.8992,315.9683 -106.3684,471.6634 102.3661,-7.1891 392.0825,-60.513 327.7717,16.203 60.1955,-100.3871 59.1784,-267.7148 204.8083,-274.673 215.4449,-57.8063 507.9449,-233.0019 230.9019,-411.5345 -43.3167,-215.3065 -374.5404,-359.6365 92.3281,-431.2855 201.42,-43.5367 402.84,-87.0733 604.26,-130.61 79.4594,-23.7002 240.8758,7.0278 194.4946,-171.2344 43.7324,-141.047 -417.408,33.8395 -276.0196,-10.8409 -167.11,9.0712 -332.2395,-76.9446 -498.5614,-105.7137 -163.7345,-42.297 -327.4691,-84.594 -491.2036,-126.891 -97.8683,94.6007 -228.6132,170.9386 -306.4688,276.6563 -15.4704,104.7079 -30.9408,209.4158 -46.4112,314.1237 z" /></g>
  <g
   id="g2318"><path
     id="path1625"
     d="m 5776.36,6501.1 c -170.2267,-47.9267 -340.4533,-95.8533 -510.68,-143.78 -46.82,131.6167 -93.64,263.2333 -140.46,394.85 -232.3213,-28.6176 -275.1299,-245.3271 -247.8918,-222.5996 -131.3857,-117.7138 -55.4768,207.6594 -202.1861,157.6295 -74.8097,87.1729 25.2813,330.7245 -5.7451,297.2664 81.3967,74.4628 462.5269,203.9303 290.9081,131.5673 122.223,51.9896 301.2064,-232.0123 171.4534,-230.3055 163.1645,-16.5776 324.7554,476.4376 490.8188,136.185 40.721,-108.7103 300.3134,-211.505 134.5327,-320.5731 6.4167,-66.7467 12.8333,-133.4933 19.25,-200.24 z" /></g>
  <g
   id="g2324"><path
     id="polygon1627"
     style="fill:#87de5d"
     d="m 4994.39,7609.01 c -66.271,-110.0232 -173.89,-207.0815 -214.9559,-325.0902 29.2309,-92.9738 15.5914,-311.624 -102.2883,-176.2538 -55.7905,157.7361 -395.7288,-21.8919 -284.1916,31.2667 -9.987,-113.0018 -180.3655,-225.9283 -200.8742,-119.3727 -12.6021,86.9982 149.1508,347.2218 150.841,247.4433 -71.8039,101.1594 -100.7633,184.3578 11.508,283.4244 101.5558,93.5019 21.3718,230.1474 21.961,346.9923 -122.3087,91.9162 -427.5006,-31.6949 -330.3267,-12.8131 -165.9291,17.4477 -331.9924,37.2771 -497.9733,55.6431 12.0909,95.8611 115.917,346.4297 -1.1632,308.0957 122.3474,33.6703 242.4578,146.4142 368.0391,65.7723 109.7394,-41.1616 431.6765,72.0942 326.5583,-11.348 222.2181,87.2633 440.4491,200.0518 665.1005,271.7374 193.3684,-17.5825 386.7369,-35.1649 580.1053,-52.7474 86.1315,-88.024 118.2211,-439.8596 123.6693,-316.32 12.1083,-85.2625 -353.1562,-185.03 -273.3816,-130.118 -166.1875,-38.0055 -240.626,-215.9471 -362.7477,-321.162 9.1258,-48.396 31.7107,-95.1057 20.12,-145.15 z" /></g>
  <g
   id="g2330"><path
     id="polygon1629"
     style="fill:#87de5d"
     d="m 3676.73,7901.93 c -4.7353,-121.5327 185.8453,-369.7983 102.6839,-305.6707 -6.9643,-168.6474 -383.8018,-49.5631 -281.4789,-48.362 -108.0841,21.9364 -137.8716,390.8279 -116.1857,298.5448 53.2141,85.9229 203.0996,70.7469 294.9807,55.4879 z" /></g>
  <path
   id="polygon1631"
   style="fill:#87de5d"
   d="m 3881.71,7234.12 c 123.4507,66.3253 341.2454,-241.3678 255.3805,-182.8642 77.8138,-68.6684 -141.169,-250.4405 -119.8635,-238.0499 -55.6456,138.7569 -141.2574,265.9858 -135.517,420.9141 z" />
  <g
   id="g2333"><path
     id="polygon1633"
     style="fill:#87de5d"
     d="m 4393.49,7020.29 c -20.8797,125.3486 246.5258,226.2935 223.9762,125.8555 144.3775,-121.7115 27.6529,-166.6103 -106.3262,-112.1055 -35.2867,-0.1264 -100.768,-64.7874 -117.65,-13.75 z" /></g>
  <g
   id="g2366"><path
     id="polygon1635"
     style="fill:#87de5d"
     d="m 5496.17,5283.64 c 103.8644,64.063 288.8174,35.1327 159.3502,-72.2055 -133.5215,-29.8911 -269.7941,-43.7454 -404.8702,-64.5745 -64.6248,146.2615 329.5422,181.1364 245.22,139.16 z" /></g>
  
  
  
  
  
  
  
  
  
  
  
  
  
  
  
  
  
  
  
  
  
  
  
  
  
  
  
  
  
  
  
  
  
  
  
  
  
  
  
  
  
  
  
  
  
  
  
  
  
  
  
  
  
  
  
  
  
  
  
  
  
  
  
  
  
  
  
  
  
  
  
  
  
  
  
  
  
  
  
  
  
  
  
  
  
  
  
  
  
  
  
  
  
  
  
  
  
  
  
  
  
  
  
  
  
  
  
  
  
  
  
  
  
  
  
  
  
  
  
  
  
  
  
  
  
  
  
  
  
  
  
  
  
  
  
  
  
  
  
  
  
  
  
  
  
  
  
  
  
  
  
  
  
  
  
  
  
  
  
  
  
  
  
  
  
  
  
  
  
  
  
  
  
  
  
  
  
  
  
  
  
  
  
  
  
  
  
  
  
  
  
  
  
  
  
  
  
  
  
  
  
  
  
  
  
  
  
  
  
  
  
  
  
  
  
  
  
  
  
  
  
  
  
  
  
  
  
  
  
  
  
  
  
  
  
  
  
  
  
  
  
  
  
  
  
  
  
  
  
  
  
  
  
  
  
  
  
  
  
  
  
  
  
  
  
  
  
  
  
  
  
  
  
  
  
  
  
  
  
  
  
  
  
  
  
  
  
  
  
  
  
  
  
  
  
  
  
  
  
  
  
  
  
  
  
 </g>
</svg>
