<?xml version="1.0" encoding="UTF-8" standalone="no"?>
<svg
   xmlns:dc="http://purl.org/dc/elements/1.1/"
   xmlns:cc="http://creativecommons.org/ns#"
   xmlns:rdf="http://www.w3.org/1999/02/22-rdf-syntax-ns#"
   xmlns:svg="http://www.w3.org/2000/svg"
   xmlns="http://www.w3.org/2000/svg"
   xmlns:sodipodi="http://sodipodi.sourceforge.net/DTD/sodipodi-0.dtd"
   xmlns:inkscape="http://www.inkscape.org/namespaces/inkscape"
   xml:space="preserve"
   width="100mm"
   height="100mm"
   version="1.1"
   shape-rendering="geometricPrecision"
   text-rendering="geometricPrecision"
   image-rendering="optimizeQuality"
   fill-rule="evenodd"
   clip-rule="evenodd"
   viewBox="0 0 10000 10000"
   id="svg2267"
   sodipodi:docname="green_map (copy).svg"
   inkscape:version="1.0.1 (3bc2e813f5, 2020-09-07)"><metadata
   id="metadata2273"><rdf:RDF><cc:Work
       rdf:about=""><dc:format>image/svg+xml</dc:format><dc:type
         rdf:resource="http://purl.org/dc/dcmitype/StillImage" /></cc:Work></rdf:RDF></metadata><defs
   id="defs2271" /><sodipodi:namedview
   pagecolor="#ffffff"
   bordercolor="#666666"
   borderopacity="1"
   objecttolerance="10"
   gridtolerance="10"
   guidetolerance="10"
   inkscape:pageopacity="0"
   inkscape:pageshadow="2"
   inkscape:window-width="1920"
   inkscape:window-height="995"
   id="namedview2269"
   showgrid="false"
   inkscape:zoom="1.4929676"
   inkscape:cx="42.589691"
   inkscape:cy="164.65455"
   inkscape:window-x="0"
   inkscape:window-y="0"
   inkscape:window-maximized="1"
   inkscape:current-layer="Layer_x0020_1"
   inkscape:document-rotation="0" />
 <g
   id="Layer_x0020_1">
  <metadata
   id="CorelCorpID_0Corel-Layer" />
  <g
   id="g2363"><polygon
     fill="#87DE5D"
     points="7014.43,1612.53 7499.28,1938.19 7473.56,2116.1 7470.33,2122.67 7436.35,2157.78 7067.78,2089.59 6907.41,2227.33 6899.52,2263.56 7092.86,2519.78 7117.35,2497.01 7499.91,2746.84 7750.09,2152.64 7913.24,2158.74 7863.12,2132.08 7980.89,1362.75 7374.93,1301.4 "
     id="polygon1567" /></g>
  <g
   id="g2354"><path
     fill="#87DE5D"
     d="M7473.78 1949.49l-486.5 -326.76 0.4 -0.59 -44.37 -15.86 -282.82 232.47 -8.46 2.68 -461.73 -38.8 -79.06 151.22 121.87 63.71c-63.61,138.84 -126.5,278.01 -191.63,416.15l-288.73 -21.61 -139.81 446.27 53.23 111.98 166.91 66.48 116.86 -342.54 171.74 -17.62 55.47 233.74 280.01 0 45.98 187.74 80.19 -41.7 68.01 -376.07 238.39 28.27 185.73 -172.69 -201.36 -266.83 11.03 -50.65 3.88 -6.48 171.93 -147.66 367.25 67.92 22.52 -23.28 23.07 -159.49z"
     id="path1569" /></g>
  <g
   id="g2345"><path
     fill="#87DE5D"
     d="M6604.46 3072.13l-117.08 60.89 -48.71 -198.93 -280.23 0 -55.01 -231.81 -136 13.96 -111.32 326.29 0 642.53 -175.84 43.96 -36.71 135.34 12.19 175.23 54.84 20.24 229.26 -7.13 40.02 173.04 -117.28 137.61 61.62 20.76 249.07 19.3 116.42 -76.27 196.14 86.75 82.02 -70.97 -49.04 -21.9 26.4 -136.89 -382.4 -118.03 -21.61 -67.02 0.19 -7.76 114.62 -302.32 327.29 30.2 215 -60.35c3.28,-35.23 16.66,-170.43 28.5,-173.82 6.66,-1.91 46.02,-14.68 46.12,-14.71l8.38 0.56 280.08 128.24 90.2 -353.2 3.6 -5.87 180.34 -160.94 49.52 -313.79 -365.13 -238.46 -222.16 206.57 -227.17 -26.95 -66.13 365.65z"
     id="path1571" /></g>
  <g
   id="g2342"><path
     fill="#87DE5D"
     d="M6833.29 3507.77c-0.19,0.06 -12.13,160.64 -12.16,161.09l-0.62 8.3 -232.87 65.37 -4.26 0.37 -311.64 -28.76 -106.79 281.66 16.57 51.36 390.91 120.67 -26.86 139.3 53.93 24.09 -4.71 131.26 85.25 -10.09 20.87 -238.95 3 -6.89 127.91 -142.24 457.75 102.15 11.48 -12.55 169.47 -782.92 87.48 83.1 73.51 -46.77 0 -171.11 196.98 0 207.67 -555.74 -93.89 -105.15 -3 -8.37 17.31 -382.98 -191.09 -7.14 -254.83 605.21 -3.96 -2.59 -48.53 307.46 -3.79 6.98 -180.73 161.3 -96.33 377.18 -301.64 -138.12c-10.35,3.35 -36.7,11.89 -42.39,13.52z"
     id="path1573" /></g>
  <g
   id="g2339"><polygon
     fill="#87DE5D"
     points="7325.69,4546.71 7082.63,4680.39 7017.66,4567.76 7016.41,4559.02 7047.97,4432.77 7050.75,4427.68 7271.23,4186.53 6840.21,4090.33 6724.15,4219.4 6701.95,4473.63 6570.21,4489.21 6574.56,4368.32 6509.7,4424.45 6514.11,4426.4 6317.23,4698.38 6418.81,5208.21 6417.79,5215.75 6341.46,5370.46 6164.12,5366.02 6165.67,5327.33 6111.99,5325.21 5985.4,5617.88 5994.14,5671.54 6201.36,5754.71 6370.86,5723.17 6375.07,5723.17 6629.4,5768.72 6739.34,5442.89 7045.66,5440.86 7049.96,5441.65 7347.22,5556.4 7407.61,5367.7 7653.6,5340.59 7615.89,5080.4 7617.96,5071.89 7782.69,4840.5 7808.47,4763.11 7561.81,4763.11 7541.85,4591.44 "
     id="polygon1575" /></g>
  <g
   id="g74"><polygon
     fill="#87DE5D"
     points="6394.82,5208.94 6292.01,4692.91 6477.84,4436.2 6291.92,4353.97 6182.87,4425.41 6175.52,4427.31 5921.04,4407.59 5918.17,4406.99 5636.98,4312.27 5589.43,4333.33 5594.22,4361.17 5686.6,4405.81 5654.59,4511.18 5649.96,4517.51 5601.56,4550.51 5427.71,4487.3 5402.3,4503.34 5507.22,4933.99 5426.88,4967.47 5418.71,4967.8 5230.92,4906.14 5110.79,4922.52 5074.86,5117.3 5073.11,5121.69 5071.09,5124.75 5217.01,5193.44 5232.01,5120.31 5529.06,5163.02 5529.39,5161.38 5541.75,5163.91 5688.26,5071.18 5709.06,4954.01 5711.64,4948.45 5753.07,4899.14 5760.98,4894.98 5992.7,4871.6 5951.54,5036.24 6196.39,5149.85 6188.66,5343.04 6326.96,5346.5 "
     id="polygon1577" /></g>
  <g
   id="g2348"><path
     fill="#87DE5D"
     d="M5633.24 4500.33l24.93 -82.03 -85.18 -41.14 -9.99 -57.98 68.62 -30.38 8.51 -0.38 198.35 66.81 115.7 -135.76 -32.98 -142.58 -212.28 6.6 -4.39 -0.7 -71.31 -26.32 -8.52 -122.57 -8.6 31.75 -225.58 -42.57c-37.48,-75.1 -74.95,-150.21 -112.6,-225.24l-319.44 48.7 -5.91 285.18 -67.94 16.47 -44.71 114.86 86.98 60.99 -76.18 134.78 122.66 55.13 3.83 2.73 72.36 77.92 127.54 -28.13 8.55 1.34 59.07 35.02c-0.5,127.44 -1.27,254.9 -1.95,382.34l179.08 58.79 57.65 -24.02 -104.16 -427.5 49.54 -31.28 173.36 63.02 34.99 -23.85z"
     id="path1579" /></g>
  <g
   id="g2351"><polygon
     fill="#87DE5D"
     points="5406.36,3902.03 5598.98,3938.39 5661.06,3709.45 5832.44,3666.6 5832.44,3061.97 5653.14,2990.54 5646.8,2984.62 5594.19,2873.95 5511.59,2889.64 5516.86,2973.98 5514.59,2981.66 5487.12,3019.11 5306.04,2933.65 5239.23,2944.49 4942.47,3145.75 4957.84,3159.61 5200.46,3191.43 5283.19,3329.29 5418.63,3341.99 5296.83,3683 "
     id="polygon1581" /></g>
  <g
   id="g2357"><path
     fill="#87DE5D"
     d="M5312.83 2910.74l166.77 78.69 13.4 -18.28 -6.3 -100.82 103.91 -19.74 145.2 -463.47 291.24 21.79 28.1 -59.72 147.19 -321.11 -102.02 -53.34 -1.24 2.38 -215.05 -43.89 58.74 -176.21 -130.29 -13.35 -44.08 113.89 -2.86 4.31 -325.66 309.17 -53.35 -179.05 -604.56 130.67 -111.94 57.85 -52.79 244.99 202.93 218.39 1.8 2.59c0.1,0.19 35.21,68.41 7.2,115.51l-25.03 258.99 120.31 108.52 303.74 -206 4.76 -1.89 72.99 -11.84 6.89 0.97z"
     id="path1583" /></g>
  <g
   id="g2321"><path
     fill="#87DE5D"
     d="M5653.08 7011.94l-40.63 97.49 -5.17 1.69c-0.36,0.12 -132.48,42.88 -158.56,61.51 -33.67,24.06 -232.55,-233.83 -267.49,-279.66l-84.86 30.55 -73.04 243.46 -196.6 -79.47 -10.19 -2.3 -14.54 215.39 213.51 297.37 2.22 6.01 3.94 51.29 -0.32 3.61 -21.23 88.6 252.12 275.2 366.56 124.65 895.62 -110.47 58.28 -149.37 -91.16 -132.95 -2.04 -6.38 -13.56 -498.26 -251.73 -70.8 -38.16 -305.32 -241.96 -125.78 -75.16 35.12 0.98 1.15c-71,81.85 -131.16,152 -206.83,227.67z"
     id="path1585" /></g>
  <g
   id="g77"><path
     fill="#87DE5D"
     d="M4249.81 3269.16l-140.24 429.71 48.82 281.23 -107.61 241.25 -3.89 26.84 575.34 7.94 206.91 93 66.73 -118.06 -84.64 -59.35 55.89 -143.56 62.25 -15.1 5.94 -286.9 339.47 -51.77 111.36 -311.76 -117.06 -10.97 -83 -138.33 -235 -30.82 -6.38 -2.91 -165.19 -149 23.61 -244.35c-84.6,59.66 -341.56,178.21 -343.03,178.75l-91.57 29.9 -117.73 274.67 -0.98 -0.41z"
     id="path1587" /></g>
  <g
   id="g2276"><path
     fill="#87DE5D"
     d="M3043.31 3129.59l24.43 -297.68c294.45,50.56 588.88,101.39 883.28,152.16l62.37 -311.82 342.5 -85.38 106.09 -197.04 -6.12 -37.52 -512.56 -186.3 -162.73 83.34 -178.01 -96.73 -98.47 131.29 -27.95 231.6 -155.04 89.77 -7.54 1.47 -917.58 -129.4 -177.94 170.52 79.18 116.29 18.07 374.26 537.95 188.81 190.07 -197.64z"
     id="path1589" /></g>
  <g
   id="g2279"><polygon
     fill="#87DE5D"
     points="3066.55,3135.65 3063.26,3142.91 2859.76,3354.53 2316.52,3163.86 2323.36,3337.52 2731.34,3573.31 2762.63,3627.28 2716.94,3867.43 2733.81,3907.04 3026.53,4087.56 3055.31,4158.67 2981.43,4258.46 3113.46,4371.71 3112.82,4372.59 3226.32,4471.18 3308.07,4198.68 3490.87,4295.69 3670.55,4164.83 4019.54,4233.04 4027.87,4214.73 4028.2,4212.47 4028.86,4212.57 4134.48,3980.54 4086.19,3694.35 4222.93,3275.33 3890.39,3220.23 3945.64,3007.11 3089.2,2859.59 "
     id="polygon1591" /></g>
  <g
   id="g2336"><polygon
     fill="#87DE5D"
     points="6211.96,5776.73 5943.67,6475.06 5799.97,6502.25 5781.57,6693.57 5842.9,6764.58 5934.73,6721.67 6175.52,6846.84 6336.59,6734.1 6343.49,6731.97 6876.99,6739.82 7241.11,6546.13 7443.61,5946.43 7342.19,5579.76 7043.53,5464.46 6756.33,5466.37 6645.27,5795.51 6373.05,5746.76 "
     id="polygon1593" /></g>
  <g
   id="g2315"><polygon
     fill="#87DE5D"
     points="5926.42,6454.3 6187.54,5774.61 5972.98,5688.49 5962.39,5611.73 6096.79,5300.99 6166.62,5303.75 6172.18,5164.67 5923.86,5049.45 5961.61,4898.46 5768.11,4917.99 5731.8,4961.21 5709.74,5085.51 5575.11,5170.73 5717.64,5199.86 5712.97,5359.44 5521.52,5313.98 5521.27,5315.24 5516.27,5314.23 5487.09,5545.51 5445.04,5622.52 5456.83,5628.11 5311.05,5805.15 5284.64,5940.98 5326.44,6048.76 5157.2,6067.33 5134.41,6143.89 5262.16,6223.25 5267.96,6333.42 5789.38,6480.21 "
     id="polygon1595" /></g>
  <g
   id="g80"><polygon
     fill="#87DE5D"
     points="5242.13,5621.8 5324.59,5565.48 5423.68,5612.4 5465.24,5536.29 5492.99,5309.58 5220.48,5255.07 5210.88,5216.66 5059.46,5145.38 5064.47,5134.74 4975.18,5269.61 4864.79,5226.27 4833.06,5188.21 4918.08,5107.08 4713.42,4902.42 4554.53,4881.51 4497.13,5056.68 4239.34,5007.39 4222.56,4990.74 4151.07,5031.89 4176.27,5866.16 4216.01,5883.41 4422.85,5756.49 4472.77,5284.33 4708.52,5301.47 4805.51,5541.02 "
     id="polygon1597" /></g>
  <g
   id="g2303"><polygon
     fill="#87DE5D"
     points="4538.17,4855.57 4720.52,4879.56 4727.35,4882.89 4951.91,5107.45 4865.31,5190.09 4880.89,5208.77 4965.89,5240.86 5052.1,5110.63 5090.68,4901.45 5219.21,4883.92 5221.08,4516.27 5177.61,4490.51 5041.44,4520.54 4961.53,4434.49 4614.82,4278.67 4229.35,4273.99 4206.66,4729.72 4130.04,4752.59 4114.51,4871.83 4168.01,4924.88 4218.31,4947.04 4248.14,4985.01 4481.15,5029.57 "
     id="polygon1599" /></g>
  <g
   id="g2312"><polygon
     fill="#87DE5D"
     points="4788.44,5561.84 4692.12,5323.99 4493.85,5309.56 4445.12,5770.53 4217.94,5909.93 4207.54,5905.41 4182.44,6213.99 4314.2,6339.85 4314.2,6386.5 4379.31,6437.79 4374.94,6815.92 4288.81,6981 4371.58,7010.5 4400.11,6969.27 4516.18,7010.73 4626.71,6991.79 4628.67,6669.16 4733.99,6656 4792.18,6471.37 4886.4,6492.85 4975.33,6685.51 5110.36,6723.46 5244.92,6345.18 5239.23,6236.83 5106.6,6154.43 5139.02,6045.56 5293.32,6028.63 5260.79,5939.81 5290.91,5792.51 5419.37,5636.51 5326.72,5592.62 5251.43,5644.04 5242.65,5645.89 "
     id="polygon1601" /></g>
  <g
   id="g2300"><polygon
     fill="#87DE5D"
     points="4089.62,4880.37 4108.64,4734.32 4183.91,4711.84 4205.72,4273.7 4019.66,4271.45 4021.67,4257.54 3676.03,4189.99 3505.17,4314.43 3540.07,4585.11 3538.68,4592.37 3347.33,4933.65 3329.71,4943.59 3469.76,4998.47 3573.77,4880.4 3650.9,4864.77 4095.04,4947.97 4137.7,4928.06 "
     id="polygon1603" /></g>
  <g
   id="g2297"><polygon
     fill="#87DE5D"
     points="3936.58,5933.83 3853.6,4926.77 3648.64,4888.37 3588.83,4899.08 3476.57,5026.52 3299.64,4957.18 3146.44,5157.67 3241.1,5644.2 3239.01,5644.6 3287.52,5870.08 3825.12,5947.33 3905.05,5896.84 "
     id="polygon1605" /></g>
  <g
   id="g2291"><polygon
     fill="#87DE5D"
     points="3297.93,4931.12 3328.7,4918.53 3516.18,4584.17 3481.82,4317.67 3322.42,4233.08 3238.46,4512.98 3098.99,4391.83 2898.04,4670.25 2754.72,4774.84 2493.97,5382.94 2462.61,5496.63 2492.43,5575.57 3032.56,5672.2 3151.72,5600.7 3211.82,5617.4 3121.23,5151.77 3284.24,4938.45 3288.54,4927.45 "
     id="polygon1607" /></g>
  <g
   id="g2327"><polygon
     fill="#87DE5D"
     points="3826.07,5971.33 3292.82,5894.71 3381.78,6315.1 3248.53,6765.79 3362.24,7248.09 3361.54,7255.54 3126.8,7788.67 3032.5,7824.95 3197.15,8109.33 3470.61,8218.02 3523.87,7941.09 3373.61,7894.48 3351.57,7825.93 3422.43,7538.46 3760.37,7472.94 3814.06,7622.82 3717.65,7695.89 3700.7,7899.23 4047.76,7860.75 4321.42,7923.39 4353.52,7890.49 4386,7639.46 4227.89,7405.28 4322.97,7279.86 4319.71,7240.76 4163.61,7056.76 3966.7,7281.81 3856.24,7251.58 3873.94,7080.27 4009.23,6772.67 4004.95,6763.75 3939.89,5974.14 3900.34,5927.73 "
     id="polygon1609" /></g>
  <g
   id="g2309"><path
     fill="#87DE5D"
     d="M3962.87 5964.86l65.41 793.86 10.82 4.76 -2.93 6.65 148.92 215.47 20.69 -34.19 60.61 21.6 86.33 -165.47 2.91 -358.29 -65.1 -51.3 0 -48.04 -132.58 -126.65 26.66 -327.8 -31.47 -13.65c-8.93,-287.75 -17.63,-575.54 -26.07,-863.29l80.78 -46.51 -6.2 -7.89 -45.62 -18.58 -61.64 26.34 -216.68 -40.6 85.15 1033.4 0.01 0.18z"
     id="path1611" /></g>
  <g
   id="g2294"><polygon
     fill="#87DE5D"
     points="2950.08,6103.27 3021.4,5694.15 2475.08,5596.42 2474.73,5595.5 2399.58,5583.49 1900.59,5437.87 1654.75,5676.98 1672.63,5816.5 1794.29,5840.05 1849.95,6106.4 1997.9,6178.57 2157.5,5972.26 2358.32,5980.31 2499.48,5925.17 2598.8,5933.8 2641.88,6121.84 "
     id="polygon1613" /></g>
  <g
   id="g2282"><polygon
     fill="#87DE5D"
     points="2287.77,5317.38 2349.01,5217.32 2330.39,5178.54 2204.75,5141.27 2525.4,4577.85 2489.86,4515.24 2354.36,4484.95 2208.6,4596.78 2212.92,4606.29 2067.47,4739.62 1951.4,5345.28 2113.72,5385.87 2139.68,5368.81 2155.9,5281.24 "
     id="polygon1615" /></g>
  <g
   id="g2285"><polygon
     fill="#87DE5D"
     points="2347.11,5158.86 2375.84,5218.73 2311.48,5323.89 2474.45,5368.56 2734.26,4762.63 2882.61,4652.33 3081.1,4376.3 2958.41,4269.72 2722.35,4298.34 2373.36,4203.86 2252.5,4380.64 2371.68,4464.66 2505.23,4494.51 2552.56,4577.87 2239.97,5127.09 "
     id="polygon1617" /></g>
  <g
   id="g83"><path
     fill="#87DE5D"
     d="M2467.26 5391.04l-292.83 -80.28 -13.38 72.22 -43.09 28.31 -171.02 -42.76c-6.72,35.06 -1.75,25.97 -26.91,50.45l485.4 141.65 59.7 9.46 -26.29 -76.01 28.42 -103.04z"
     id="path1619" /></g>
  <g
   id="g2288"><path
     fill="#87DE5D"
     d="M2363.34 4176.67l362.86 98.23 235.5 -29.44 67.05 -90.57 -18.12 -49.43 -292.43 -180.33 -25.13 -58.56 45.48 -239.01 -25.41 -38.96 -398.58 -228.87 -74.38 145.45 200.61 255.69c-43.75,119.79 -87.22,239.72 -130.74,359.59l-253.74 51.54 -136.56 239.89 243.63 93.7 35.19 69.12 138.01 -105.89 -116.72 -82.28 143.48 -209.87z"
     id="path1621" /></g>
  <g
   id="g2360"><path
     fill="#87DE5D"
     d="M3955.6 2145.36l521.33 189.49 7.76 62.65 -112.95 209.77 -338.08 84.27 -59.31 296.54 0.57 0.1 -3.02 11.67 -52.2 201.31 312.52 51.78 118.83 -277.19 101.23 -33.06c16.74,-7.73 330.15,-152.99 355.32,-190.75 21.7,-32.55 -1.52,-84.19 -5.85,-93.18l-210.2 -226.22c19.12,-89.31 38.46,-178.6 57.72,-267.89l126.24 -64.78 604.26 -130.61 -5.16 -17.32 182.81 0 24.69 -225.6 -332.69 71.31 -940.94 -243.07 -303.64 257.51 -49.24 333.27z"
     id="path1623" /></g>
  <g
   id="g2318"><path
     fill="#87DE5D"
     d="M5776.36 6501.1l-510.68 -143.78 -140.46 394.85 -166.79 -46.87 -88.62 -192.02 -61.63 -14.04 -56.22 178.35 -99.84 12.49 -1.8 297.65 44.19 -7.56 28.82 59.79 111.37 25.3 173.44 70.11 68.99 -229.97 112.44 -40.49c0.97,1.29 226.89,301.76 245.46,288.49 25.78,-18.41 134.72,-54.82 159.78,-63.06 56.31,-135.14 16.2,-62.89 110.94,-164.53l122.95 -141.58 -71.59 -82.89 19.25 -200.24z"
     id="path1625" /></g>
  <g
   id="g2324"><polygon
     fill="#87DE5D"
     points="4994.39,7609.01 4780.35,7310.9 4778.13,7303.23 4793.21,7079.94 4712.71,7061.77 4589.48,7220.8 4385.53,7135.84 4371.78,7035.65 4215.96,6980.12 4192.08,7019.56 4192.27,7022 4190.52,7022.14 4179.98,7039.55 4340.21,7228.39 4344.57,7290.49 4256.95,7406.07 4408.08,7629.88 4409.96,7637.97 4376.39,7897.42 4329.06,7949.37 4044.46,7884.24 3548.09,7940.25 3492.97,8226.9 3804.8,8350.84 4108.49,8249.61 4116.77,8249.94 4887.35,8576.26 5486.73,8521.76 5592.16,8378.67 5615.33,8158.61 5611.52,8169.82 5236.94,8040.87 4974.27,7754.16 4997.95,7655.32 "
     id="polygon1627" /></g>
  <g
   id="g2330"><polygon
     fill="#87DE5D"
     points="3676.73,7901.93 3694.94,7683.45 3785.94,7614.48 3744.94,7500.01 3441.75,7558.79 3375.34,7828.18 3391.93,7875.45 3530.52,7918.43 "
     id="polygon1629" /></g>
  <g
   id="g86"><polygon
     fill="#87DE5D"
     points="3881.71,7234.12 3958.66,7255.17 4160.94,7024 4161.53,7024.52 4166.85,7000.7 4025.02,6795.49 3896.3,7088.11 "
     id="polygon1631" /></g>
  <g
   id="g2333"><polygon
     fill="#87DE5D"
     points="4393.49,7020.29 4407.06,7119.22 4581.9,7192.04 4698.12,7042.07 4680.95,7006.47 4511.14,7034.04 4409.18,6997.63 "
     id="polygon1633" /></g>
  <g
   id="g2366"><polygon
     fill="#87DE5D"
     points="5496.17,5283.64 5690.24,5329.71 5693.48,5219.01 5541.5,5188.68 5250.65,5146.86 5235.85,5219.05 5239.78,5234.8 5495.87,5286.02 "
     id="polygon1635" /></g>
  
  
  
  
  
  
  
  
  
  
  
  
  
  
  
  
  
  
  
  
  
  
  
  
  
  
  
  
  
  
  
  
  
  
  
  
  
  
  
  
  
  
  
  
  
  
  
  
  
  
  
  
  
  
  
  
  
  
  
  
  
  
  
  
  
  
  
  
  
  
  
  
  
  
  
  
  
  
  
  
  
  
  
  
  
  
  
  
  
  
  
  
  
  
  
  
  
  
  
  
  
  
  
  
  
  
  
  
  
  
  
  
  
  
  
  
  
  
  
  
  
  
  
  
  
  
  
  
  
  
  
  
  
  
  
  
  
  
  
  
  
  
  
  
  
  
  
  
  
  
  
  
  
  
  
  
  
  
  
  
  
  
  
  
  
  
  
  
  
  
  
  
  
  
  
  
  
  
  
  
  
  
  
  
  
  
  
  
  
  
  
  
  
  
  
  
  
  
  
  
  
  
  
  
  
  
  
  
  
  
  
  
  
  
  
  
  
  
  
  
  
  
  
  
  
  
  
  
  
  
  
  
  
  
  
  
  
  
  
  
  
  
  
  
  
  
  
  
  
  
  
  
  
  
  
  
  
  
  
  
  
  
  
  
  
  
  
  
  
  
  
  
  
  
  
  
  
  
  
  
  
  
  
  
  
  
  
  
  
  
  
  
  
  
  
  
  
  
  
  
  
  
  
  
  
 </g>
</svg>
