<?xml version="1.0" encoding="UTF-8" standalone="no"?>
<svg
   xmlns:dc="http://purl.org/dc/elements/1.1/"
   xmlns:cc="http://creativecommons.org/ns#"
   xmlns:rdf="http://www.w3.org/1999/02/22-rdf-syntax-ns#"
   xmlns:svg="http://www.w3.org/2000/svg"
   xmlns="http://www.w3.org/2000/svg"
   xmlns:sodipodi="http://sodipodi.sourceforge.net/DTD/sodipodi-0.dtd"
   xmlns:inkscape="http://www.inkscape.org/namespaces/inkscape"
   width="212.72032mm"
   height="278.00528mm"
   viewBox="0 0 212.72032 278.00528"
   version="1.1"
   id="svg1223"
   inkscape:version="1.0.1 (3bc2e813f5, 2020-09-07)"
   sodipodi:docname="kota_madiun_dan_kecamatan.svg"
   inkscape:export-filename="C:\Users\ryanb\OneDrive\Desktop\map\drawing-1.png"
   inkscape:export-xdpi="96"
   inkscape:export-ydpi="96">
  <defs
     id="defs1217" />
  <sodipodi:namedview
     id="base"
     pagecolor="#ffffff"
     bordercolor="#666666"
     borderopacity="1.0"
     inkscape:pageopacity="0.34117647"
     inkscape:pageshadow="2"
     inkscape:zoom="0.7"
     inkscape:cx="395.0483"
     inkscape:cy="405.00794"
     inkscape:document-units="mm"
     inkscape:current-layer="layer1"
     inkscape:document-rotation="0"
     showgrid="false"
     inkscape:window-width="958"
     inkscape:window-height="1008"
     inkscape:window-x="953"
     inkscape:window-y="0"
     inkscape:window-maximized="0" />
  <metadata
     id="metadata1220">
    <rdf:RDF>
      <cc:Work
         rdf:about="">
        <dc:format>image/svg+xml</dc:format>
        <dc:type
           rdf:resource="http://purl.org/dc/dcmitype/StillImage" />
        <dc:title></dc:title>
      </cc:Work>
    </rdf:RDF>
  </metadata>
  <g
     inkscape:label="Layer 1"
     inkscape:groupmode="layer"
     id="layer1"
     transform="translate(-0.423893,-25.620197)">
    <path
       id="manguharjo_1"
       d="m 43.632924,120.88408 2.175333,-2.90646 -0.587876,-1.58625 -9.487439,-5.78694 -0.151186,-0.17362 -0.64011,-1.48741 -0.024,-0.21822 1.475528,-7.67003 -0.824388,-1.250255 -12.931311,-7.344631 -2.413143,4.667616 6.508479,8.20531 c -1.419401,3.84415 -2.829718,7.6928 -4.241656,11.53953 l -8.232199,1.65396 -4.4304768,7.69828 7.9041958,3.00691 0.213154,0.19736 0.928531,2.02076 4.477519,-3.3981 -3.786798,-2.64043 4.654985,-6.73491 11.772431,3.15229 z"
       style="stroke-width:0.0322666" />
    <path
       id="undefined_1"
       d="m 27.52248,163.39256 -0.842557,-2.20496 -0.01038,-0.23427 0.922043,-3.30665 -9.500414,-2.57623 -0.434093,2.31759 -1.397991,0.90849 -5.548478,-1.37221 -0.162866,0.84015 -0.109334,0.20056 -0.6008531,0.57827 15.7480511,4.54568 z"
       style="stroke-width:0.0322666" />
    <path
       id="kejuron_1"
       d="m 45.569797,167.37375 -17.724505,-3.13624 -0.01135,-0.0295 -2.39173,-0.37515 -0.04639,-0.0103 -16.1889571,-4.67307 -7.9758959,7.67325 0.5800885,4.47731 3.9470693,0.75573 1.8058026,8.5474 4.8000066,2.316 5.177978,-6.62067 6.515292,0.25833 4.404197,-1.74286 0.175519,-0.0266 3.222282,0.27693 1.397664,6.03436 9.999073,-0.59593 z"
       style="stroke-width:0.0322666" />
    <path
       id="nambangan_kidul_1"
       d="m 21.768311,155.28288 1.986836,-3.211 -0.604097,-1.24449 -4.076194,-1.19603 10.40299,-18.08061 -1.15304,-2.00921 -4.396086,-0.97202 -4.728957,3.58871 0.140156,0.30518 -4.718899,4.27867 -3.765713,19.43613 5.26622,1.30257 0.842234,-0.54747 0.526233,-2.81019 z"
       style="stroke-width:0.0322666" />
    <path
       id="nambangan_lor_1"
       d="m 27.824853,156.92529 8.429131,-19.44479 0.127502,-0.15724 4.685482,-3.38238 6.439702,-8.85802 -3.980488,-3.42025 -7.512928,0.92902 -0.145671,-0.0106 -11.322438,-3.03194 -3.921114,5.67302 3.866609,2.69627 4.332821,0.95791 1.535549,2.67509 -10.141496,17.62493 3.475991,1.01952 0.932101,1.92129 -2.088061,3.37466 z"
       style="stroke-width:0.0322666" />
    <path
       id="ngegong"
       d="m 75.729871,80.405025 2.0235,-10.006562 11.111878,-2.739915 3.441931,-6.32318 -0.198554,-1.204048 -16.629213,-5.978521 -5.27952,2.674449 -5.775261,-3.104146 -3.194706,4.213205 -0.906795,7.432239 -5.03003,2.880795 -0.244624,0.04717 -29.769457,-4.152554 -5.772987,5.472128 2.499767,3.532879 0.06911,0.198964 0.586253,12.010322 17.45295,6.05907 6.166529,-6.342441 0.792592,-9.552797 c 9.552972,1.622512 19.105295,3.253689 28.656641,4.88294 z"
       style="stroke-width:0.0322666" />
    <path
       id="sogaten"
       d="m 84.852973,89.033285 3.855251,-8.895255 3.284255,-1.060923 c 0.543102,-0.248062 10.711201,-4.909576 11.527811,-6.121326 0.70402,-1.044556 -0.0494,-2.701727 -0.1898,-2.990223 l -6.819612,-7.25959 c 0.620327,-2.866032 1.247777,-5.731423 1.872646,-8.596812 l 4.001246,-2.044829 0.0944,-0.03401 19.60429,-4.191384 -0.16741,-0.555813 h 5.93099 l 0.80103,-7.239691 -10.61647,2.293211 -0.17714,-0.0048 -30.527349,-7.800323 -9.851127,8.263713 -1.597517,10.694911 16.913746,6.080892 0.291994,1.77013 -0.04026,0.24036 -3.664499,6.731693 -10.968468,2.704295 -1.924228,9.516217 0.01848,0.0032 -0.08339,0.318662 -0.01132,0.05649 -0.0033,-6.43e-4 -1.693549,6.460201 z"
       style="stroke-width:0.0322666" />
    <path
       id="kelun"
       d="m 175.11746,36.391163 15.73019,10.450703 -0.83444,5.709279 -0.10479,0.210837 -1.10242,1.126709 -11.95769,-2.188273 -5.20295,4.42019 -0.25599,1.162651 6.27262,8.222315 0.79454,-0.730711 12.41157,8.017255 8.1167,-19.068374 5.29315,0.195755 -1.62606,-0.855543 3.82086,-24.68844 -19.65944,-1.968772 z"
       style="stroke-width:0.0322666" />
    <path
       id="pilangbango"
       d="m 191.0884,73.838601 -1.5745,9.866645 -0.12295,0.22399 -5.8635,5.176256 -3.12528,12.104028 -9.78625,-4.432393 c -0.33578,0.10751 -1.19067,0.38156 -1.37527,0.433873 -0.006,0.0019 -0.39354,5.15507 -0.39451,5.16951 l -0.0201,0.26635 -7.5551,2.09778 -0.13822,0.0119 -10.11067,-0.92292 -3.46464,9.0387 0.53759,1.64818 12.68247,3.87241 -0.87143,4.47025 1.74968,0.77308 -0.15281,4.21223 2.76581,-0.32379 0.67709,-7.66811 0.0973,-0.2211 4.14984,-4.56459 14.851,3.27807 0.37244,-0.40275 5.49818,-25.124551 2.83816,2.666752 2.38491,-1.500898 v -5.491055 h 6.39072 l 6.73753,-17.834159 -3.04611,-3.374356 -0.0973,-0.268599 0.56161,-12.290146 -6.19963,-0.229129 -8.26756,19.421694 z"
       style="stroke-width:0.0322666" />
    <path
       id="tawangrejo"
       d="m 145.81485,47.344409 3.95389,2.044507 c -2.06373,4.455491 -4.10409,8.92157 -6.21714,13.354597 l -9.3674,-0.693482 -4.53591,14.321177 1.72695,3.593531 5.41515,2.13372 v -3.21e-4 l 3.79134,-10.992393 5.57184,-0.565441 1.79963,7.500911 h 9.08449 l 1.49176,6.024735 2.60164,-1.338191 2.20647,-12.068397 7.73419,0.907208 6.02573,-5.541769 -6.53281,-8.562796 0.35784,-1.6254 0.12588,-0.207949 5.578,-4.738532 11.91486,2.179609 0.73063,-0.747074 0.74847,-5.118167 -15.78374,-10.485998 0.013,-0.01893 -1.43953,-0.508961 -9.17565,7.460155 -0.27447,0.086 -14.98011,-1.245125 z"
       style="stroke-width:0.0322666" />
    <path
       id="sukosari"
       d="m 129.03997,76.871183 -2.67983,0.503505 0.17098,2.706541 -0.0737,0.246458 -0.89122,1.201802 -5.87487,-2.742483 -2.16755,0.347865 -9.62791,6.4586 0.49866,0.444776 7.87142,1.02113 2.68406,4.42405 4.39414,0.407551 -3.95161,10.943292 3.55352,7.02885 6.24926,1.16683 2.01408,-7.34687 5.56017,-1.3751 V 82.904902 l -5.81711,-2.292248 -0.20569,-0.189978 z"
       style="stroke-width:0.0322666" />
    <path
       id="patihan"
       d="m 107.31129,85.071993 9.85438,-6.610709 0.15443,-0.06065 2.36804,-0.379955 0.22354,0.03113 5.41059,2.525231 0.43474,-0.586624 -0.20438,-3.235397 3.3712,-0.633473 4.71077,-14.873137 9.44883,0.699259 0.91167,-1.916464 4.77534,-10.304689 -3.30987,-1.711725 -0.0403,0.07637 -6.97697,-1.408466 1.90573,-5.654725 -4.22705,-0.428412 -1.43011,3.654824 -0.0928,0.138312 -10.56555,9.921525 -1.73085,-5.745867 -19.61402,4.193308 -3.631707,1.856455 -1.712683,7.861936 6.58374,7.008316 0.0583,0.08311 c 0.004,0.0061 1.14235,2.195337 0.23361,3.706811 l -0.81208,8.311207 z"
       style="stroke-width:0.0322666" />
    <path
       id="winongo"
       d="m 78.223155,119.89793 0.01072,-0.0725 0.02144,0.004 3.426675,-7.44603 -1.579993,-9.00309 0.01333,-0.18098 4.436319,-13.446707 -10.788746,-1.76821 1.7925,-6.839197 -27.785867,-4.734039 -0.734844,8.858996 -0.106739,0.23298 -6.602241,6.791062 -17.624578,-6.118762 0.221911,5.572894 13.105533,7.443471 0.130747,0.123228 0.959678,1.455964 0.05549,0.27598 -1.482341,7.70661 0.547321,1.27113 9.496844,5.79303 0.158649,0.19127 0.775074,2.0907 -2.396922,3.20235 3.97205,3.41254 0.311458,0.22174 -0.02077,0.0283 3.68233,3.16383 2.652252,-8.74476 5.930661,3.11313 5.82944,-4.19941 11.322433,2.18893 z"
       style="stroke-width:0.0322666" />
    <path
       id="manguharjo_2"
       d="m 54.236739,142.76971 0.304644,0.11778 0.998284,-0.40403 6.082497,-10.72989 -1.114757,-8.55222 -5.171484,-2.71455 -2.723951,8.98222 -4.524888,-3.8878 -6.433859,8.85 -0.08565,0.0847 -4.649795,3.35639 -8.459627,19.51443 -1.017428,3.6484 0.967464,2.53326 17.52368,3.10094 3.865961,-2.2945 1.949851,0.53591 -2.939052,-14.94244 5.288606,-6.84562 z"
       style="stroke-width:0.0322666" />
    <path
       style="stroke-width:0.0322666"
       d="m 83.550694,209.90726 0.0059,0.0782 -0.05681,0.004 -0.341957,0.5587 5.198419,6.06004 0.09019,0.21371 0.127828,1.51949 -0.07656,0.25963 -2.842703,3.70906 4.903174,7.18224 0.06103,0.25962 -1.089123,8.32597 -0.104794,0.21661 -1.43075,1.45052 -9.233409,-2.09009 -16.103952,1.79742 -1.788284,9.19883 10.116843,3.97733 9.852747,-3.24855 0.26863,0.0105 25.000267,10.47189 19.44595,-1.74896 3.42052,-4.59187 0.75171,-7.06192 -0.1236,0.35975 -11.9937,-4.03414 -0.15897,-0.10398 -8.52193,-9.20076 0.76827,-3.17187 -0.11549,-1.48613 -6.9442,-9.56659 -0.072,-0.24613 0.48924,-7.16557 -2.61169,-0.58308 -3.998,5.1034 -6.616849,-2.72644 -0.446091,-3.21517 -5.055346,-1.78202 z"
       id="demangan" />
    <path
       id="madiun_lor"
       d="m 104.21911,124.21094 2.16495,-3.78865 -2.74601,-1.90458 1.81327,-4.60696 2.0196,-0.48457 0.19272,-9.20687 11.01357,-1.66134 3.61291,-10.004644 -3.79783,-0.352034 -2.69281,-4.439119 -7.62422,-0.989041 -0.20698,-0.09339 -5.35932,-4.781538 0.76598,-7.841394 c -2.72493,1.90074 -11.060948,5.707676 -11.088203,5.71987 l -0.04086,0.01637 -2.970847,0.959516 -3.81957,8.814395 -0.03183,-0.01319 -4.549865,13.789749 1.583892,9.02491 -0.02989,0.2211 -3.461383,7.52081 -0.126208,0.86132 18.514832,0.22208 0.151184,0.0328 z"
       style="stroke-width:0.0322666" />
    <path
       id="kartoharjo"
       d="m 84.759854,121.79963 -0.736135,14.62476 -2.485824,0.73391 -0.503843,3.82651 1.735728,1.70243 1.474229,0.59399 0.157675,0.11714 0.967786,1.21848 7.559649,1.42997 1.849923,-5.58381 5.916068,0.76986 0.22158,0.10687 7.28551,7.20631 -2.8096,2.65198 0.50546,0.59947 2.7577,1.02979 2.79694,-4.17919 1.25167,-6.71276 4.16996,-0.56255 0.0607,-11.7982 -1.41033,-0.82665 -4.41782,0.96369 -2.59256,-2.76142 -11.248467,-5.0004 z"
       style="stroke-width:0.0322666" />
    <path
       id="pagongangan"
       d="m 81.78642,142.78928 -1.559887,-1.53041 0.617077,-4.68687 2.442015,-0.7214 0.707597,-14.06028 -6.036427,-0.0722 0.06517,-0.44636 -11.21375,-2.16775 -5.543286,3.99339 1.132276,8.68635 -0.0451,0.23297 -6.208053,10.95197 -0.190444,0.16462 -0.38121,0.15436 4.543704,1.76115 3.374446,-3.78896 0.220291,-0.12163 2.144187,-0.37996 h 0.137885 l 14.409433,2.66997 z"
       style="stroke-width:0.0322666" />
    <path
       id="undefined_2"
       d="m 99.96838,210.62962 -0.557054,-1.14242 -5.315858,0.9011 -0.193363,-0.0164 -3.307941,-1.16842 -0.509042,0.72717 0.440258,3.17475 5.672418,2.33685 z"
       style="stroke-width:0.0322666" />
    <path
       id="kuncen_1"
       d="m 66.830959,238.22325 0.590795,-7.0112 2.952353,-2.21331 -1.330178,-3.67344 -9.836531,1.8863 -2.154568,8.64496 0.538236,1.51692 4.496337,1.37927 z"
       style="stroke-width:0.0322666" />
    <path
       id="path47"
       d="m 118.38198,188.65542 -4.55701,12.67107 -5.41124,-1.50409 -2.87514,-6.16208 -1.99949,-0.45055 -1.82396,5.72339 -3.239164,0.40081 -0.05832,9.55184 1.433682,-0.24261 0.935022,1.91872 3.55449,0.79425 0.0587,0.0176 5.62698,2.24989 2.23829,-7.37993 3.64793,-1.29936 0.17034,0.22336 c 0.0201,0.0266 7.19919,9.45459 7.79323,9.03453 0.83639,-0.5908 4.37079,-1.75922 5.18381,-2.02365 l 1.21209,-2.87758 0.0828,-0.12323 2.30446,-2.27909 3.98892,-4.54341 -2.32264,-2.66002 0.62455,-6.42586 z"
       style="stroke-width:0.0322666" />
    <path
       id="taman"
       d="m 97.651592,209.0161 0.06364,-10.35346 3.416948,-0.42231 1.88788,-5.92494 3.05682,0.68931 2.8852,6.18262 4.38083,1.21785 4.3656,-12.13933 -0.18461,-3.47704 -4.30297,-2.64428 1.05182,-3.49373 5.00602,-0.5433 -1.03592,-2.64267 -0.0195,-0.20763 0.89608,-4.55787 0.0811,-0.16912 4.16768,-5.00618 -3.00588,-1.40846 -2.44267,1.65012 -0.28485,0.0593 -14.73614,-2.69723 -3.124952,-7.63281 -6.432556,-0.46306 -1.580981,14.7929 -7.370498,4.47346 -0.337415,-0.14505 -0.814331,9.90259 4.274743,4.03896 v 1.49702 l 2.1124,1.64596 -0.09831,11.96249 -0.04347,0.17201 -2.794361,5.29755 2.685348,0.94669 0.925616,-1.32311 3.765704,1.33049 z"
       style="stroke-width:0.0322666" />
    <path
       id="oro_oro_ombo"
       d="m 136.96557,124.40669 3.75373,-4.35664 -1.07,-4.57553 -6.88708,0.21181 -0.14243,-0.0225 -2.31355,-0.84464 -0.27642,-3.93337 -0.27902,1.01889 -7.31858,-1.36612 c -1.21598,-2.41001 -2.43164,-4.82036 -3.65314,-7.22813 l -10.36373,1.56282 -0.19174,9.15166 -2.2042,0.52855 -1.45056,3.68595 2.82193,1.95722 -2.47154,4.3252 3.97952,1.76916 0.12425,0.0876 2.34762,2.50053 4.13783,-0.90271 0.27739,0.0429 1.91643,1.12383 c -0.0162,4.08966 -0.0412,8.17994 -0.0633,12.26961 l 5.80996,1.88662 1.87038,-0.77082 -3.37931,-13.71883 1.60724,-1.0038 5.6244,2.02235 1.1352,-0.76536 0.80882,-2.63242 -2.76355,-1.32021 -0.32411,-1.86062 2.22626,-0.97493 0.2761,-0.0122 z"
       style="stroke-width:0.0322666" />
    <path
       id="kuncen_2"
       d="m 78.130686,202.71666 -4.176113,9.39043 -0.473354,4.68558 2.496526,0.67552 6.562655,-7.41845 0.01916,0.0167 0.206987,-0.33825 -0.03436,-0.42616 z"
       style="stroke-width:0.0322666" />
    <path
       id="banjarejo"
       d="m 147.91751,205.22906 -7.85001,-4.0364 -2.43845,1.12704 0.0318,0.0369 c -2.30349,2.62664 -4.25528,4.87781 -6.71028,7.30613 l -1.31818,3.12853 -0.16773,0.0543 c -0.0116,0.004 -4.2981,1.37605 -5.14423,1.9739 -1.09237,0.77211 -7.54473,-7.5038 -8.67829,-8.97452 l -2.75316,0.98037 -2.36967,7.81284 -6.37837,-2.55026 -0.33061,-0.0738 -0.47173,6.91203 6.927,9.54286 0.0719,0.19286 0.12783,1.64595 -0.0104,0.11584 -0.68878,2.84324 8.17965,8.8314 11.89248,4.00012 29.05699,-3.54506 1.8908,-4.79342 -2.95753,-4.26647 -0.0661,-0.20474 -0.43994,-15.98958 -8.16699,-2.27202 z"
       style="stroke-width:0.0322666" />
    <path
       id="manisrejo"
       d="m 137.10898,201.72474 2.97928,-1.37701 7.81206,4.0168 5.22567,-3.61791 0.22386,-0.0683 17.30857,0.25192 11.81331,-6.21568 6.5698,-19.24487 -3.29041,-11.76674 -9.68957,-3.70008 -9.31775,0.0613 -3.60317,10.56237 -8.83176,-1.56443 -5.22632,0.96176 -8.70424,22.41 -4.66213,0.87254 -0.59697,6.13964 z"
       style="stroke-width:0.0322666" />
    <path
       id="mojorejo"
       d="m 128.42095,150.57676 4.62416,0.93481 -0.15151,5.12106 -6.2113,-1.45885 -0.008,0.0404 -0.16222,-0.0324 -0.9016,7.28686 -0.0451,0.1351 -1.36424,2.47131 0.3825,0.17939 -4.72961,5.68136 -0.85682,4.3589 1.35613,3.45875 -5.49072,0.59593 -0.7394,2.45688 4.14466,2.54672 0.18817,3.53545 16.91667,4.71061 4.44605,-0.83147 8.47163,-21.81182 -6.96107,-2.76366 -0.3705,-2.25245 0.0269,-0.21084 4.36039,-9.9719 2.26553,0.0886 0.18039,-4.4632 -8.05636,-3.6975 1.22475,-4.8454 -6.27781,0.62673 -1.17804,1.38697 -0.71569,3.9889 z"
       style="stroke-width:0.0322666" />
    <path
       id="klegen"
       d="m 126.92693,150.32935 0.0108,-0.0527 0.40099,0.0811 4.7533,-2.97579 0.67482,-3.76008 0.0838,-0.17842 1.34412,-1.5824 0.25663,-0.13351 7.5178,-0.75028 -1.33537,5.28345 7.94378,3.64583 -0.2508,6.19963 4.48694,0.11104 2.20162,-4.41442 -3.33551,-16.55983 6.02896,-8.23804 -6.03188,-2.63883 -3.53796,2.29256 -0.23846,0.061 -8.25621,-0.63284 -0.0931,-0.0192 -9.12277,-3.03964 -1.54269,0.67583 0.1554,0.89341 2.99713,1.43254 -1.03851,3.3814 -0.15022,0.20313 -1.57025,1.059 -5.6403,-2.02845 -0.8244,0.51474 3.40397,13.81992 -2.60649,1.07439 -0.26507,0.0106 -6.09255,-1.97873 -3.89743,0.52564 -1.1657,6.25067 -0.0567,0.14087 -0.0655,0.0982 4.73415,2.20432 0.48666,-2.3468 z"
       style="stroke-width:0.0322666" />
    <path
       id="undefined_3"
       d="m 125.85013,154.27651 0.01,-0.0764 6.2963,1.47842 0.10511,-3.55246 -4.87366,-0.98518 -0.0571,0.0119 -9.43617,-1.34204 -0.48018,2.31664 0.12752,0.50543 z"
       style="stroke-width:0.0322666" />
    <path
       id="kejuron_2"
       d="m 123.50804,164.75032 1.34835,-2.44243 0.90031,-7.27532 -8.84116,-1.74926 -0.31147,-1.23261 -4.91259,-2.28744 0.16255,-0.34145 -2.89688,4.3281 -3.42247,-1.27819 -0.15897,-0.11264 -1.02944,-1.22137 2.75835,-2.60353 -6.63987,-6.56771 -5.154947,-0.67102 -1.862255,5.62135 -8.36359,-1.58175 -0.229381,-0.138 -0.31502,-0.39632 -2.319387,1.32055 0.817572,26.7724 1.289308,0.55358 6.710601,-4.07297 1.61958,-15.152 7.648539,0.55003 3.14669,7.68736 14.16546,2.5923 2.67529,-1.80736 z"
       style="stroke-width:0.0322666" />
    <path
       id="kanigoro"
       d="m 160.84656,124.82676 -2.10429,1.80126 0.14307,0.0626 -6.38747,8.72805 3.29562,16.36087 -0.0331,0.24197 -2.47642,4.96478 -5.75351,-0.1425 0.0504,-1.24159 -1.74156,-0.068 -4.10701,9.39201 0.28355,1.722 6.72293,2.66899 5.49916,-1.01215 h 0.13659 l 8.25134,1.46174 3.56684,-10.45615 9.93807,-0.0651 0.13951,0.0254 9.64414,3.68243 1.95925,-6.05555 7.98077,-0.86997 -1.22344,-8.34972 0.0671,-0.27309 5.3444,-7.42549 0.8364,-2.48353 h -8.00248 l -0.64758,-5.50902 -7.01297,-1.43543 -7.88571,4.28992 -2.10786,-3.61441 -0.0405,-0.28048 1.02392,-4.05146 0.0902,-0.16333 7.15313,-7.73871 -13.98377,-3.08714 -3.76539,4.14196 -0.72025,8.15846 -4.2741,0.49997 z"
       style="stroke-width:0.0322666" />
    <path
       id="rejomulyo"
       d="m 157.96818,126.28913 2.66101,-2.27747 -1.59103,-0.70279 0.85651,-4.39292 -12.40639,-3.78768 -0.70109,-2.15073 0.006,-0.24902 3.71865,-9.7017 10.61842,0.96914 6.97534,-1.93668 c 0.10642,-1.13056 0.54052,-5.469238 0.92465,-5.578029 0.21606,-0.06126 1.49304,-0.471097 1.49628,-0.472059 l 0.27188,0.018 9.08676,4.115328 2.92639,-11.334478 0.1168,-0.188377 5.85086,-5.164693 1.6066,-10.069783 -11.84608,-7.652383 -7.20763,6.629003 -7.37019,-0.864848 -2.14548,11.734012 -3.79848,1.954014 -1.58032,-6.383829 h -9.09163 l -1.78471,-7.438979 -4.41232,0.447988 -3.6116,10.47092 v 20.619323 l -5.70485,1.41071 -1.191,4.34317 0.39548,5.62328 1.7792,0.64952 7.43798,-0.22881 1.2984,5.553 -3.80497,4.41602 1.99916,0.6662 8.08068,0.61935 3.77707,-2.44756 z"
       style="stroke-width:0.0322666" />
    <path
       id="pandean"
       d="m 76.114006,176.05529 0.0033,0.004 -0.0026,0.003 2.122132,25.47562 0.351039,0.15275 -0.09506,0.21341 4.831477,6.91461 0.67126,-1.09719 1.966398,0.69316 2.800836,-5.31006 0.09441,-11.49783 -2.112062,-1.64625 v -1.54166 l -4.30135,-4.06429 0.864944,-10.51938 -1.020998,-0.43804 c -0.289724,-9.23414 -0.571977,-18.46955 -0.845799,-27.7037 l 2.620775,-1.49253 -0.201144,-0.2532 -1.480071,-0.59624 -1.767194,0.81542 -0.232622,0.0299 -7.029847,-1.30289 z"
       style="stroke-width:0.0322666" />
    <path
       id="nambangan_lor_2"
       d="m 54.203646,173.01949 17.441594,2.47902 2.593208,-1.62027 1.022946,1.18704 -2.692159,-32.31739 -6.649613,-1.23229 -1.940441,0.34369 -3.642102,4.08966 -5.740218,-2.22518 -4.970336,6.4339 3.071097,15.61314 -0.0678,0.0128 z"
       style="stroke-width:0.0322666" />
    <path
       id="josenan"
       d="m 72.81743,215.74491 -5.163381,-3.11955 v 4.05885 l -11.077813,0.34144 0.05158,0.21533 -0.02271,0.23908 -7.615774,17.10858 -3.059417,1.16426 5.341814,9.12599 8.871983,3.48795 1.727938,-8.88692 -4.874952,-1.49575 -0.704347,-1.98481 -0.01071,-0.21501 2.298939,-9.22516 10.963941,-2.10259 1.741894,4.80979 -3.127878,2.34487 -0.549917,6.52534 11.131998,-1.24222 0.127828,0.008 8.878479,2.01018 1.041424,-1.0558 1.053773,-8.05575 -5.129642,-7.51503 3.084727,-4.02484 -0.105764,-1.25475 -5.064428,-5.90471 -6.388435,7.22203 -3.583709,-0.9701 z"
       style="stroke-width:0.0322666" />
    <path
       id="nambangan_kidul_2"
       d="m 56.397148,216.27376 10.488965,-0.32315 v -4.67756 l 6.015667,3.63493 0.297185,-2.93695 0.03013,-0.11553 4.389277,-9.87114 -0.07141,-0.1027 -0.06753,-0.18355 -2.11077,-25.33925 -1.283145,-1.48933 -2.15165,1.34428 -0.257919,0.0549 -17.300469,-2.4588 2.893631,13.30518 -0.0074,0.18549 -4.323089,14.463 z"
       style="stroke-width:0.0322666" />
  </g>
</svg>
