<?xml version="1.0" encoding="UTF-8"?>
<!DOCTYPE svg PUBLIC "-//W3C//DTD SVG 1.1//EN" "http://www.w3.org/Graphics/SVG/1.1/DTD/svg11.dtd">
<!-- Creator: CorelDRAW 2019 (64-Bit) -->
<svg xmlns="http://www.w3.org/2000/svg" xml:space="preserve" width="100mm" height="100mm" version="1.1" shape-rendering="geometricPrecision" text-rendering="geometricPrecision" image-rendering="optimizeQuality" fill-rule="evenodd" clip-rule="evenodd"
viewBox="0 0 10000 10000"
 xmlns:xlink="http://www.w3.org/1999/xlink"
 xmlns:xodm="http://www.corel.com/coreldraw/odm/2003">
 <g id="Layer_x0020_1">
  <metadata id="CorelCorpID_0Corel-Layer"/>
  <g id="_2387798404272">
   <path fill="#FF6059" d="M4535.72 4689.82c170.12,0 308.03,137.91 308.03,308.03 0,26.91 -3.46,53.02 -9.95,77.9l2.13 0 -4.91 9.91c-22.02,74.2 -107.28,216.95 -145.2,293.63l-150.1 303.54 -150.1 -303.54c-37.93,-76.7 -123.16,-219.41 -145.2,-293.63l-4.9 -9.91 2.12 0c-6.48,-24.89 -9.94,-50.99 -9.94,-77.9 0,-170.12 137.9,-308.03 308.02,-308.03z"/>
   <path fill="#000977" fill-rule="nonzero" d="M4535.72 4687.66c85.65,0 163.21,34.73 219.33,90.85 56.13,56.13 90.85,133.69 90.85,219.34 0,13.39 -0.86,26.63 -2.51,39.63 -1.57,12.27 -3.86,24.33 -6.81,36.11l2.81 0 -6.35 12.86c-15.37,51.61 -60.96,135.88 -100.14,208.31 -17.38,32.14 -33.52,61.96 -45.14,85.48l-152.05 307.45 -152.02 -307.45c-11.62,-23.49 -27.73,-53.28 -45.1,-85.38 -39.19,-72.45 -84.8,-156.76 -100.18,-208.41l-6.36 -12.86 2.82 0c-2.96,-11.78 -5.25,-23.84 -6.82,-36.11 -1.65,-13 -2.51,-26.24 -2.51,-39.63 0,-85.65 34.72,-163.21 90.85,-219.34 56.12,-56.12 133.68,-90.85 219.33,-90.85zm216.28 93.9c-55.34,-55.34 -131.82,-89.58 -216.28,-89.58 -84.46,0 -160.94,34.24 -216.28,89.58 -55.35,55.35 -89.58,131.82 -89.58,216.29 0,13.27 0.84,26.32 2.47,39.08 1.66,13.03 4.15,25.81 7.4,38.28l0.71 2.7 -1.45 0c0.87,1.75 3.02,5.51 3.5,7.14 15.2,51.2 60.75,135.41 99.89,207.77 17.37,32.1 33.49,61.9 45.17,85.52l148.17 299.62 148.17 -299.62c11.69,-23.64 27.83,-53.47 45.22,-85.62 39.13,-72.34 84.66,-156.51 99.85,-207.67 0.48,-1.63 2.63,-5.39 3.5,-7.14l-1.46 0 0.71 -2.7c3.25,-12.47 5.74,-25.25 7.4,-38.28 1.63,-12.76 2.47,-25.81 2.47,-39.08 0,-84.47 -34.23,-160.94 -89.58,-216.29z"/>
   <path fill="white" d="M4533.03 5263.67c141.85,0 256.84,-118.2 256.84,-264.02 0,-145.82 -114.99,-264.03 -256.84,-264.03 -141.85,0 -256.84,118.21 -256.84,264.03 0,145.82 114.99,264.02 256.84,264.02z"/>
   <path fill="#000977" fill-rule="nonzero" d="M4533.03 5261.51c70.32,0 133.99,-29.3 180.07,-76.67 46.1,-47.38 74.61,-112.87 74.61,-185.19 0,-72.33 -28.51,-137.81 -74.61,-185.19 -46.08,-47.37 -109.75,-76.68 -180.07,-76.68 -70.32,0 -134,29.3 -180.07,76.67 -46.09,47.39 -74.61,112.87 -74.61,185.2 0,72.32 28.52,137.81 74.61,185.19 46.08,47.37 109.75,76.67 180.07,76.67zm183.16 -73.67c-46.88,48.18 -111.64,77.99 -183.16,77.99 -71.51,0 -136.29,-29.81 -183.15,-77.99 -46.86,-48.16 -75.85,-114.72 -75.85,-188.19 0,-73.49 28.99,-140.03 75.85,-188.2 46.86,-48.18 111.63,-77.99 183.15,-77.99 71.52,0 136.28,29.81 183.16,77.99 46.85,48.17 75.84,114.71 75.84,188.2 0,73.47 -28.99,140.03 -75.84,188.19z"/>
  </g>
  <g id="_2387798401584">
   <path fill="#87DE5D" d="M5278.72 4286.24c245.2,0 443.96,198.77 443.96,443.97 0,38.79 -4.98,76.41 -14.33,112.28l3.06 0 -7.06 14.28c-31.75,106.95 -154.63,312.69 -209.29,423.22l-216.34 437.5 -216.35 -437.5c-54.67,-110.55 -177.51,-316.24 -209.28,-423.22l-7.07 -14.28 3.07 0c-9.35,-35.87 -14.34,-73.49 -14.34,-112.28 0,-245.2 198.77,-443.97 443.97,-443.97z"/>
   <path fill="#000977" fill-rule="nonzero" d="M5278.72 4283.12c123.44,0 235.23,50.05 316.12,130.95 80.9,80.9 130.95,192.69 130.95,316.14 0,19.31 -1.24,38.38 -3.62,57.11 -2.27,17.69 -5.57,35.08 -9.82,52.06l4.06 0 -9.16 18.53c-22.16,74.39 -87.86,195.85 -144.33,300.25 -25.06,46.32 -48.32,89.31 -65.07,123.2l-219.14 443.13 -219.12 -443.13c-16.74,-33.86 -39.97,-76.8 -65.01,-123.07 -56.48,-104.42 -122.22,-225.93 -144.39,-300.38l-9.16 -18.53 4.05 0c-4.25,-16.98 -7.55,-34.37 -9.81,-52.06 -2.39,-18.73 -3.63,-37.8 -3.63,-57.11 0,-123.45 50.05,-235.24 130.95,-316.14 80.89,-80.9 192.68,-130.95 316.13,-130.95zm311.73 135.35c-79.77,-79.77 -190,-129.12 -311.73,-129.12 -121.74,0 -231.97,49.35 -311.73,129.12 -79.78,79.77 -129.13,189.99 -129.13,311.74 0,19.13 1.22,37.94 3.57,56.33 2.39,18.78 5.98,37.2 10.66,55.17l1.02 3.89 -2.08 0c1.25,2.53 4.35,7.94 5.04,10.3 21.91,73.79 87.57,195.17 143.99,299.45 25.03,46.28 48.27,89.23 65.1,123.27l213.56 431.86 213.56 -431.86c16.84,-34.07 40.1,-77.06 65.17,-123.4 56.4,-104.27 122.02,-225.58 143.92,-299.32 0.69,-2.35 3.79,-7.77 5.04,-10.3l-2.09 0 1.02 -3.89c4.68,-17.97 8.27,-36.39 10.67,-55.17 2.34,-18.39 3.56,-37.2 3.56,-56.33 0,-121.75 -49.35,-231.97 -129.12,-311.74z"/>
   <path fill="white" d="M5274.84 5113.35c204.45,0 370.19,-170.38 370.19,-380.55 0,-210.17 -165.74,-380.55 -370.19,-380.55 -204.45,0 -370.19,170.38 -370.19,380.55 0,210.17 165.74,380.55 370.19,380.55z"/>
   <path fill="#000977" fill-rule="nonzero" d="M5274.84 5110.24c101.35,0 193.13,-42.25 259.55,-110.52 66.43,-68.29 107.53,-162.67 107.53,-266.92 0,-104.25 -41.1,-198.63 -107.53,-266.92 -66.42,-68.27 -158.2,-110.51 -259.55,-110.51 -101.36,0 -193.13,42.23 -259.54,110.5 -66.44,68.3 -107.54,162.68 -107.54,266.93 0,104.25 41.1,198.63 107.54,266.92 66.41,68.28 158.18,110.52 259.54,110.52zm263.99 -106.19c-67.56,69.45 -160.91,112.41 -263.99,112.41 -103.08,0 -196.43,-42.96 -263.99,-112.41 -67.53,-69.42 -109.31,-165.35 -109.31,-271.25 0,-105.92 41.78,-201.83 109.31,-271.26 67.56,-69.44 160.9,-112.4 263.99,-112.4 103.08,0 196.43,42.96 263.99,112.41 67.53,69.42 109.31,165.33 109.31,271.25 0,105.9 -41.78,201.83 -109.31,271.25z"/>
  </g>
 </g>
</svg>
